<svg width="54" height="32" viewBox="0 0 54 32" fill="none" xmlns="http://www.w3.org/2000/svg">
<rect x="1.25" y="1.25" width="51.5" height="29.5" rx="14.75" stroke="black" stroke-width="2.5"/>
<path d="M35.1279 16.0039C35.1279 15.6636 34.9868 15.3149 34.7544 15.0825L29.3589 9.69531C29.0933 9.42969 28.7861 9.29688 28.479 9.29688C27.7485 9.29688 27.2505 9.81152 27.2505 10.4839C27.2505 10.8574 27.4165 11.1479 27.6489 11.3804L29.5332 13.2729L31.2515 14.8501L29.4585 14.7588H20.1782C19.3979 14.7588 18.875 15.2568 18.875 16.0039C18.875 16.751 19.3979 17.2573 20.1782 17.2573H29.4585L31.2515 17.1577L29.5332 18.7349L27.6489 20.6274C27.4165 20.8516 27.2505 21.1421 27.2505 21.5239C27.2505 22.1963 27.7485 22.7026 28.479 22.7026C28.7861 22.7026 29.0933 22.5698 29.3506 22.3125L34.7544 16.9253C34.9868 16.6929 35.1279 16.3442 35.1279 16.0039Z" fill="black"/>
</svg>
