<svg width="26" height="26" viewBox="0 0 26 26" fill="none" xmlns="http://www.w3.org/2000/svg">
<path d="M5.15475 23H20.8452C22.9083 23 24 21.8043 24 19.5939V7.39609C24 5.18562 22.9083 4 20.8452 4H5.15475C3.10093 4 2 5.18562 2 7.39609V19.5939C2 21.8144 3.10093 23 5.15475 23ZM4.11859 7.64728C4.11859 6.73295 4.54415 6.3009 5.34903 6.3009H20.651C21.4466 6.3009 21.8814 6.73295 21.8814 7.64728V9.06399H4.11859V7.64728ZM5.34903 20.6991C4.54415 20.6991 4.11859 20.257 4.11859 19.3427V11.4754H21.8814V19.3427C21.8814 20.257 21.4466 20.6991 20.651 20.6991H5.34903ZM6.82927 18.7398H9.09588C9.64172 18.7398 10.0118 18.3379 10.0118 17.7753V15.9164C10.0118 15.3437 9.64172 14.9519 9.09588 14.9519H6.82927C6.29268 14.9519 5.92262 15.3437 5.92262 15.9164V17.7753C5.92262 18.3379 6.29268 18.7398 6.82927 18.7398Z" fill="#EB5757"/>
</svg>
