<svg width="32" height="32" viewBox="0 0 32 32" fill="none" xmlns="http://www.w3.org/2000/svg">
<path d="M16.0054 9.56537C16.6072 9.56537 17.0586 9.09172 17.0586 8.42431V6.68042L18.2838 7.3586C18.7997 7.61695 19.4016 7.52007 19.681 7.06795C20.0142 6.55124 19.8745 5.8623 19.2296 5.50706L17.1876 4.35524C16.3278 3.88159 15.683 3.88159 14.8124 4.35524L12.7811 5.50706C12.1255 5.8623 11.9858 6.55124 12.319 7.06795C12.5984 7.52007 13.211 7.61695 13.7162 7.3586L14.9521 6.66966V8.42431C14.9521 9.09172 15.3928 9.56537 16.0054 9.56537ZM6.02101 15.2384C6.61212 15.2384 7.03127 14.754 7.03127 14.0973V12.2996L8.84758 13.333C9.38495 13.6344 10.0083 13.473 10.3415 12.9563C10.6639 12.4396 10.4275 11.7937 9.8256 11.46L8.17049 10.5234L9.75037 9.62996C10.3737 9.27473 10.5564 8.56425 10.1803 8.05831C9.81485 7.58466 9.17001 7.52007 8.60039 7.84301L6.41866 9.0702C5.48363 9.59767 5 10.3189 5 11.5138V14.0973C5 14.754 5.44064 15.2384 6.02101 15.2384ZM25.9897 15.2384C26.5701 15.2384 27 14.754 27 14.0973V11.5138C27 10.222 26.6238 9.65149 25.5813 9.0702L23.4104 7.84301C22.83 7.52007 22.1851 7.58466 21.8197 8.05831C21.4436 8.56425 21.637 9.27473 22.2496 9.62996L23.8295 10.5234L22.1744 11.46C21.5725 11.7937 21.3468 12.4396 21.6693 12.9563C21.9917 13.473 22.615 13.6344 23.1632 13.333L24.9687 12.2996V14.0973C24.9687 14.754 25.3879 15.2384 25.9897 15.2384ZM16.0054 20.0825C16.6072 20.0825 17.0586 19.6089 17.0586 18.9415V16.767L19.0254 15.6475C19.6165 15.3137 19.8315 14.6571 19.509 14.1404C19.1866 13.6237 18.5848 13.4514 18.0259 13.7744L16.0054 14.9047L13.9849 13.7744C13.4152 13.4514 12.8134 13.6237 12.491 14.1404C12.1685 14.6571 12.3835 15.3137 12.9746 15.6475L14.9521 16.767V18.9415C14.9521 19.6089 15.3928 20.0825 16.0054 20.0825ZM7.88031 23.721C8.49292 24.0547 9.15926 23.904 9.43869 23.3765C9.70738 22.8706 9.52467 22.2678 9.06253 21.9556L8.13825 21.4066L9.58916 20.5777C10.1803 20.244 10.406 19.5981 10.0835 19.0814C9.76111 18.5647 9.14851 18.3817 8.58964 18.7046L7.04201 19.5766L7.02052 18.4355C6.97753 17.8327 6.55838 17.3913 6.02101 17.3913C5.41915 17.3913 5 17.8758 5 18.5432V20.244C5 21.8049 5.51588 22.3862 6.57987 22.989L7.88031 23.721ZM24.1197 23.721L25.4201 22.989C26.4841 22.3862 27 21.8049 27 20.244V18.5432C27 17.8758 26.5809 17.3913 25.9897 17.3913C25.4416 17.3913 25.0225 17.8327 24.9902 18.4355L24.958 19.5766L23.4211 18.7046C22.8515 18.3817 22.2389 18.5647 21.9272 19.0814C21.6048 19.5981 21.8197 20.244 22.4108 20.5777L23.8725 21.4174L22.9482 21.9556C22.4753 22.2678 22.2926 22.8706 22.5613 23.3765C22.8407 23.904 23.5178 24.0547 24.1197 23.721ZM15.0596 27.7255C15.7152 28.0915 16.2956 28.0915 16.9404 27.7255L19.9389 26.0462C20.53 25.7233 20.6913 25.1097 20.4118 24.5714C20.1324 24.044 19.4768 23.8932 18.8964 24.227L17.0586 25.2711V23.2689C17.0586 22.6122 16.6072 22.1278 16.0054 22.1278C15.3928 22.1278 14.9521 22.6122 14.9521 23.2689V25.2711L13.1036 24.227C12.534 23.8932 11.8676 24.044 11.5882 24.5714C11.3087 25.1097 11.47 25.7233 12.0611 26.0462L15.0596 27.7255Z" fill="#111112"/>
</svg>
