<svg width="18" height="18" viewBox="0 0 18 18" fill="none" xmlns="http://www.w3.org/2000/svg">
<path d="M5.38268 15C5.7216 15 5.93017 14.8742 6.17132 14.522L9.84078 9.21384L13.2821 4.25786C13.4125 4.08176 13.4777 3.91195 13.4777 3.71698C13.4777 3.30818 13.1387 3 12.6955 3C12.2914 3 12.0959 3.14465 11.8482 3.49686L8.30261 8.64151L4.75047 13.7358C4.62663 13.9119 4.55493 14.0692 4.55493 14.2956C4.55493 14.7296 4.946 15 5.38268 15ZM4.67877 9.25157C6.32775 9.25157 7.35754 8.06918 7.35754 6.13836C7.35754 4.18868 6.31471 3.05031 4.67877 3.05031C3.04935 3.05031 2 4.18868 2 6.13836C2 8.08176 3.03631 9.25157 4.67877 9.25157ZM4.67877 7.93711C4.05307 7.93711 3.72067 7.32075 3.72067 6.13836C3.72067 4.97484 4.05959 4.36478 4.67877 4.36478C5.30447 4.36478 5.63687 4.97484 5.63687 6.13836C5.63687 7.32075 5.30447 7.93711 4.67877 7.93711ZM13.3212 14.9497C14.9702 14.9497 16 13.7673 16 11.8365C16 9.88679 14.9572 8.74843 13.3212 8.74843C11.6918 8.74843 10.6425 9.89308 10.6425 11.8428C10.6425 13.7799 11.6788 14.9497 13.3212 14.9497ZM13.3212 13.6352C12.6955 13.6352 12.3631 13.0189 12.3631 11.8428C12.3631 10.673 12.702 10.0629 13.3212 10.0629C13.9469 10.0629 14.2793 10.673 14.2793 11.8428C14.2793 13.0189 13.9469 13.6352 13.3212 13.6352Z" fill="#CCAB29"/>
</svg>
