<svg width="26" height="26" viewBox="0 0 26 26" fill="none" xmlns="http://www.w3.org/2000/svg">
<path d="M2.84716 16.5074C1.98778 16.5074 1.75721 17.178 2.27074 17.8904L4.92225 21.5678C5.33098 22.1441 5.98076 22.1441 6.39997 21.5678L9.04099 17.8799C9.55452 17.178 9.31348 16.5074 8.46458 16.5074H6.84014V8.91163C6.84014 7.22484 7.8672 6.14571 9.31348 6.14571C10.7702 6.14571 11.8078 7.21436 11.8078 8.91163V16.0884C11.8078 19.2524 13.8514 21.4211 16.6811 21.4211C19.6051 21.4211 21.5335 19.2734 21.5335 16.0884V8.49256H23.1579C23.9963 8.49256 24.2478 7.82203 23.7343 7.12007L21.0933 3.43218C20.6741 2.85594 20.0243 2.85594 19.6156 3.43218L16.9641 7.10959C16.4505 7.82203 16.6811 8.49256 17.5405 8.49256H19.1544V16.256C19.1544 17.9428 18.1274 19.0324 16.6811 19.0324C15.2348 19.0324 14.1868 17.9637 14.1868 16.256V9.08974C14.1868 5.91522 12.1536 3.75696 9.31348 3.75696C6.39997 3.75696 4.4716 5.89427 4.4716 9.08974V16.5074H2.84716Z" fill="#8356D6"/>
</svg>
