<svg width="32" height="32" viewBox="0 0 32 32" fill="none" xmlns="http://www.w3.org/2000/svg">
<path d="M15.5 2C11.7564 2 8.33475 4.73137 8.33475 10.3451V13.4608C6.77825 13.6804 6 14.7098 6 16.6588V26.7471C6 28.9843 7.00636 30 9.01907 30H21.9809C23.9936 30 25 28.9843 25 26.7471V16.6588C25 14.7098 24.2218 13.6804 22.6653 13.4608V10.3451C22.6653 4.73137 19.2436 2 15.5 2ZM10.4951 10.0431C10.4951 6.21373 12.7225 4.11373 15.5 4.11373C18.2641 4.11373 20.5049 6.21373 20.5049 10.0431V13.4059H10.4951V10.0431ZM21.9138 15.4784C22.5445 15.4784 22.8397 15.7529 22.8397 16.5078V26.8843C22.8397 27.6529 22.5445 27.9412 21.9138 27.9412H9.08616C8.46893 27.9412 8.16031 27.6529 8.16031 26.8843V16.5078C8.16031 15.7529 8.46893 15.4784 9.08616 15.4784H21.9138Z" fill="#047AFF"/>
</svg>
