<svg width="32" height="32" viewBox="0 0 32 32" fill="none" xmlns="http://www.w3.org/2000/svg">
<path d="M7.44495 29.6733H9.55677C9.75208 29.6733 9.89856 29.5024 9.89856 29.3071V26.2065C13.0236 25.7305 14.9279 23.4478 14.9279 20.3472C14.9279 17.564 13.3287 15.8672 10.2282 14.6099L8.83655 14.0483C6.67591 13.1694 5.72376 12.4004 5.72376 10.9233C5.72376 9.4707 6.77356 8.53076 8.38489 8.53076C9.81312 8.53076 10.7775 9.42188 11.1437 11.0698C11.1803 11.2407 11.3146 11.3628 11.4855 11.3628H14.1954C14.4152 11.3628 14.5861 11.1919 14.5739 10.9478C14.3297 7.99365 12.4376 5.84521 9.7887 5.38135V2.36621C9.7887 2.1709 9.63001 2 9.42249 2H7.33509C7.12757 2 6.96888 2.1709 6.96888 2.36621V5.39355C4.11243 5.78418 2.24476 8.14014 2.24476 11.2163C2.24476 13.9751 3.92933 15.8794 6.79798 16.9292L8.28724 17.4785C10.5333 18.3086 11.4367 19.0166 11.4367 20.5791C11.4367 22.1538 10.277 23.0938 8.3971 23.0938C7.04212 23.0938 6.01673 22.2148 5.50403 20.6401C5.45521 20.4814 5.32093 20.3716 5.16224 20.3716H2.37903C2.15931 20.3716 1.98841 20.5547 2.00062 20.7622C2.22034 23.5698 4.24671 25.7915 7.09095 26.231V29.3071C7.09095 29.5024 7.24964 29.6733 7.44495 29.6733Z" fill="#007AFF"/>
</svg>
