<svg width="32" height="32" viewBox="0 0 32 32" fill="none" xmlns="http://www.w3.org/2000/svg">
<path d="M8.66553 27.0459C10.0908 27.0459 12.9722 25.6616 15.146 24.1133C22.375 24.2466 27.7891 20.063 27.7891 14.5669C27.7891 9.26562 22.498 5 15.8945 5C9.29102 5 4 9.26562 4 14.5669C4 17.9404 6.0918 20.9448 9.30127 22.5137C8.86035 23.3442 8.08105 24.4824 7.64014 25.0771C6.98389 25.9487 7.43506 27.0459 8.66553 27.0459ZM9.896 24.9233C9.77295 24.9746 9.72168 24.9028 9.81396 24.79C10.3267 24.1543 11.106 23.1392 11.4854 22.4214C11.793 21.8574 11.6802 21.3652 11.0239 21.0576C7.90674 19.5913 6.0918 17.2432 6.0918 14.5669C6.0918 10.4448 10.4395 7.0918 15.8945 7.0918C21.3496 7.0918 25.6973 10.4448 25.6973 14.5669C25.6973 18.689 21.3496 22.0522 15.8945 22.0522C15.6997 22.0522 15.4229 22.042 15.064 22.042C14.623 22.0317 14.2949 22.165 13.8848 22.4829C12.6543 23.4058 10.8086 24.5542 9.896 24.9233Z" fill="#111112"/>
</svg>
