<svg width="26" height="26" viewBox="0 0 26 26" fill="none" xmlns="http://www.w3.org/2000/svg">
<g clip-path="url(#clip0)">
<path d="M0 12.4112C0 13.0291 0.469691 13.5255 1.23163 13.5255C1.57607 13.5255 1.91008 13.3533 2.20233 13.1203L3.25652 12.2592V21.4877C3.25652 23.0579 4.23766 24 5.90767 24H20.0401C21.7102 24 22.6913 23.0579 22.6913 21.4877V12.2187L23.7977 13.1203C24.0899 13.3533 24.4239 13.5255 24.7788 13.5255C25.4781 13.5255 26 13.1 26 12.4314C26 12.0465 25.833 11.7223 25.5199 11.4691L22.6913 9.15943V4.74272C22.6913 4.28687 22.3886 3.98296 21.9189 3.98296H20.228C19.7583 3.98296 19.4348 4.28687 19.4348 4.74272V6.50535L14.6648 2.6154C13.6628 1.79487 12.3685 1.79487 11.3561 2.6154L0.480128 11.4691C0.167001 11.7325 0 12.0769 0 12.4112ZM15.9904 15.1564C15.9904 14.6803 15.6772 14.3764 15.1867 14.3764H10.8342C10.3332 14.3764 10.0096 14.6803 10.0096 15.1564V21.6802H6.62786C5.99117 21.6802 5.63629 21.3358 5.63629 20.7077V10.3143L12.4938 4.74272C12.8173 4.46921 13.1931 4.46921 13.5271 4.74272L20.3115 10.2636V20.7077C20.3115 21.3358 19.9566 21.6802 19.32 21.6802H15.9904V15.1564Z" fill="#EB5757"/>
</g>
<defs>
<clipPath id="clip0">
<rect width="26" height="26" fill="white"/>
</clipPath>
</defs>
</svg>
