<svg width="26" height="26" viewBox="0 0 26 26" fill="none" xmlns="http://www.w3.org/2000/svg">
<path d="M12.745 12.1179C13.0998 12.1179 13.3991 12.0132 13.6098 11.7934L18.1552 7.45926C18.4324 7.20801 18.5543 6.91488 18.5543 6.57988C18.5543 6.26582 18.4213 5.95175 18.1552 5.71097L13.6208 1.34547C13.388 1.11516 13.0998 1 12.745 1C12.0576 1 11.5255 1.53391 11.5255 2.19345C11.5255 2.51798 11.6475 2.76923 11.8692 2.98908L14.2749 5.21893C13.8315 5.16659 13.3769 5.13518 12.9335 5.13518C7.41242 5.13518 3 9.30177 3 14.5467C3 19.7811 7.46785 24 13 24C18.5432 24 23 19.7811 23 14.5467C23 13.8138 22.4678 13.3113 21.714 13.3113C20.9823 13.3113 20.4723 13.8138 20.4723 14.5467C20.4723 18.4515 17.1463 21.6026 13 21.6026C8.86475 21.6026 5.5388 18.4515 5.5388 14.5467C5.5388 10.579 8.80931 7.44879 12.9335 7.44879C13.5654 7.44879 14.1419 7.49067 14.6519 7.56395L11.8692 10.1602C11.6475 10.3801 11.5255 10.6313 11.5255 10.9454C11.5255 11.6049 12.0576 12.1179 12.745 12.1179Z" fill="#E1BA1D"/>
</svg>
