<svg width="18" height="18" viewBox="0 0 18 18" fill="none" xmlns="http://www.w3.org/2000/svg">
<path d="M14.8213 2.86816C14.1172 2.16406 13.1533 2 11.834 2H5.59277C4.29395 2 3.32324 2.16406 2.61914 2.875C1.91504 3.5791 1.75781 4.5293 1.75781 5.8418V12.042C1.75781 13.3682 1.9082 14.3252 2.61914 15.0225C3.33008 15.7266 4.28711 15.8906 5.60645 15.8906H11.834C13.1533 15.8906 14.1172 15.7266 14.8213 15.0225C15.5322 14.3184 15.6826 13.3682 15.6826 12.042V5.85547C15.6826 4.5293 15.5322 3.57227 14.8213 2.86816ZM14.1172 5.66406V12.2334C14.1172 12.9512 14.0215 13.5254 13.6797 13.8809C13.3311 14.2295 12.7363 14.3252 12.0254 14.3252H5.42188C4.7041 14.3252 4.11621 14.2227 3.76074 13.8809C3.41895 13.5254 3.32324 12.9512 3.32324 12.2334V5.67773C3.32324 4.94629 3.41895 4.36523 3.76074 4.0166C4.10938 3.66797 4.7041 3.56543 5.42871 3.56543H12.0254C12.7363 3.56543 13.3311 3.66797 13.6797 4.0166C14.0283 4.36523 14.1172 4.94629 14.1172 5.66406ZM5.80469 7.50977C6.32422 7.56445 6.74121 6.9834 6.7002 6.51855C6.18066 6.5459 5.79102 7.01074 5.80469 7.50977ZM9.37305 6.83984H8.69629V7.60547H8.23145V8.13184H8.69629V10.0117C8.69629 10.668 8.95605 10.9004 9.62598 10.9004C9.76953 10.9004 9.93359 10.8867 9.98828 10.873V10.3262C9.9541 10.3467 9.83789 10.3467 9.76953 10.3467C9.50293 10.3467 9.37305 10.2373 9.37305 9.93652V8.13184H10.002V7.60547H9.37305V6.83984ZM7.5957 9.75879C7.34961 9.64258 7.18555 9.47852 7.08984 9.24609C6.99414 8.98633 7.00781 8.72656 7.08984 8.51465C7.14453 8.36426 7.24023 8.18652 7.48633 8.0293C7.30176 7.75586 7.00098 7.60547 6.65234 7.60547C6.25586 7.60547 6.02344 7.81738 5.83203 7.81738C5.66113 7.81738 5.47656 7.61914 5.15527 7.61914C4.81348 7.61914 4.52637 7.75586 4.3418 7.99512C4.12988 8.26172 4.03418 8.60352 4.03418 8.93848C4.03418 9.50586 4.28027 10.1689 4.65625 10.5859C4.85449 10.8047 5.00488 10.9141 5.18262 10.9141C5.44922 10.9141 5.58594 10.7227 5.90723 10.7227C6.05078 10.7227 6.16016 10.7773 6.24902 10.8047C6.37891 10.8457 6.46777 10.9004 6.61816 10.9004C6.78223 10.9004 6.90527 10.8389 6.99414 10.7568C7.28809 10.4902 7.50684 10.0869 7.5957 9.75879ZM12.21 10.873L13.3857 7.60547H12.6611L11.8545 10.2373L11.0137 7.60547H10.3027L11.5059 10.873H12.21Z" fill="#007AFF"/>
</svg>
