<svg width="32" height="32" viewBox="0 0 32 32" fill="none" xmlns="http://www.w3.org/2000/svg">
<path d="M5.66504 22.1445H7.57227V23.9082C7.57227 26.0205 8.63867 27.0869 10.792 27.0869H26.3369C28.4697 27.0869 29.5566 26.0205 29.5566 23.9082V13.0083C29.5566 10.9062 28.4697 9.83984 26.3369 9.83984H24.4297V8.17871C24.4297 6.06641 23.353 5 21.2202 5H5.66504C3.52197 5 2.44531 6.06641 2.44531 8.17871V18.9761C2.44531 21.0884 3.52197 22.1445 5.66504 22.1445ZM5.6958 20.4937C4.67041 20.4937 4.09619 19.9502 4.09619 18.8838V8.271C4.09619 7.20459 4.67041 6.65088 5.6958 6.65088H21.1895C22.2046 6.65088 22.7788 7.20459 22.7788 8.271V9.83984H10.792C8.63867 9.83984 7.57227 10.896 7.57227 13.0083V20.4937H5.6958ZM9.22314 13.1006C9.22314 12.0342 9.78711 11.4907 10.8125 11.4907H26.3062C27.3213 11.4907 27.9058 12.0342 27.9058 13.1006V21.6626L24.1426 18.1147C23.7017 17.6943 23.1582 17.4893 22.6045 17.4893C22.0303 17.4893 21.5381 17.6841 21.0562 18.1045L16.4521 22.1855L14.6167 20.5244C14.186 20.145 13.7144 19.9399 13.2222 19.9399C12.771 19.9399 12.3506 20.1245 11.9097 20.5142L9.22314 22.8521V13.1006ZM14.7808 18.3711C16.1035 18.3711 17.1904 17.2842 17.1904 15.9409C17.1904 14.6284 16.1035 13.521 14.7808 13.521C13.4478 13.521 12.3608 14.6284 12.3608 15.9409C12.3608 17.2842 13.4478 18.3711 14.7808 18.3711Z" fill="#111112"/>
</svg>
