<svg width="26" height="26" viewBox="0 0 26 26" fill="none" xmlns="http://www.w3.org/2000/svg">
<path d="M7.02002 23.6167C7.53662 23.6167 7.8623 23.4146 8.22168 22.853L14.6567 13.2622L20.7886 4.1543C20.9907 3.87354 21.0806 3.61523 21.0806 3.30078C21.0806 2.66064 20.5527 2.17773 19.8901 2.17773C19.2949 2.17773 18.9917 2.39111 18.6211 2.95264L12.3657 12.2852L6.06543 21.6177C5.87451 21.8872 5.77344 22.1455 5.77344 22.5049C5.77344 23.1675 6.34619 23.6167 7.02002 23.6167ZM6.35742 13.0825C9.0415 13.0825 10.7036 11.0161 10.7036 7.66943C10.7036 4.30029 9.01904 2.30127 6.35742 2.30127C3.68457 2.30127 2 4.31152 2 7.66943C2 11.0386 3.67334 13.0825 6.35742 13.0825ZM6.35742 11.0161C5.18945 11.0161 4.54932 9.83691 4.54932 7.66943C4.54932 5.53564 5.20068 4.36768 6.35742 4.36768C7.50293 4.36768 8.1543 5.52441 8.1543 7.66943C8.1543 9.83691 7.51416 11.0161 6.35742 11.0161ZM20.4629 23.4932C23.1582 23.4932 24.8203 21.4268 24.8203 18.0801C24.8203 14.7109 23.1357 12.7007 20.4629 12.7007C17.8013 12.7007 16.1167 14.7109 16.1167 18.0801C16.1167 21.438 17.79 23.4932 20.4629 23.4932ZM20.4629 21.4268C19.3062 21.4268 18.666 20.2476 18.666 18.0801C18.666 15.9463 19.3174 14.7671 20.4629 14.7671C21.6196 14.7671 22.271 15.9351 22.271 18.0801C22.271 20.2476 21.6309 21.4268 20.4629 21.4268Z" fill="#CCAB29"/>
</svg>
