<svg width="26" height="26" viewBox="0 0 26 26" fill="none" xmlns="http://www.w3.org/2000/svg">
<path d="M21.8611 9.94958C22.6004 9.94958 23 9.54019 23 8.79131V6.38492C23 4.17823 21.8212 3 19.5934 3H17.1858C16.4366 3 16.027 3.40939 16.027 4.14828C16.027 4.87718 16.4366 5.28657 17.1858 5.28657H19.3836C20.2428 5.28657 20.7223 5.72591 20.7223 6.62456V8.79131C20.7223 9.54019 21.1219 9.94958 21.8611 9.94958ZM4.13886 9.94958C4.88811 9.94958 5.28771 9.54019 5.28771 8.79131V6.62456C5.28771 5.72591 5.74725 5.28657 6.61638 5.28657H8.82418C9.57343 5.28657 9.97303 4.87718 9.97303 4.14828C9.97303 3.40939 9.57343 3 8.82418 3H6.40659C4.18881 3 3 4.17823 3 6.38492V8.79131C3 9.54019 3.40959 9.94958 4.13886 9.94958ZM7.87513 14.2332L11.9111 14.2431V18.2172C11.9111 18.9661 12.2807 19.3854 12.9401 19.3854C13.3996 19.3854 13.7892 19.0859 14.039 18.5367L18.1848 9.54019C18.3247 9.24064 18.3946 8.98103 18.3946 8.76136C18.3946 8.19221 17.955 7.76286 17.3956 7.76286C17.1658 7.76286 16.9061 7.84274 16.6164 7.97254L7.52547 12.1463C7.02597 12.3759 6.76623 12.7654 6.76623 13.2047C6.76623 13.8138 7.14585 14.2332 7.87513 14.2332ZM9.89311 12.7254L16.4166 9.73989L13.4196 16.2701L13.4396 13.4743C13.4496 12.9651 13.1798 12.7054 12.6703 12.7054L9.89311 12.7254ZM6.40659 23H8.82418C9.57343 23 9.97303 22.5906 9.97303 21.8517C9.97303 21.1128 9.56344 20.7134 8.82418 20.7134H6.61638C5.74725 20.7134 5.28771 20.2741 5.28771 19.3655V17.2087C5.28771 16.4598 4.87812 16.0504 4.13886 16.0504C3.3996 16.0504 3 16.4598 3 17.2087V19.6151C3 21.8218 4.18881 23 6.40659 23ZM17.1858 23H19.5934C21.8212 23 23 21.8118 23 19.6151V17.2087C23 16.4598 22.6004 16.0504 21.8611 16.0504C21.1219 16.0504 20.7223 16.4598 20.7223 17.2087V19.3655C20.7223 20.2741 20.2428 20.7134 19.3836 20.7134H17.1858C16.4366 20.7134 16.027 21.1128 16.027 21.8517C16.027 22.5906 16.4366 23 17.1858 23Z" fill="#EB5757"/>
</svg>
