<svg width="32" height="32" viewBox="0 0 32 32" fill="none" xmlns="http://www.w3.org/2000/svg">
<path d="M24.6865 22.3838C25.1436 22.9297 25.9434 22.9551 26.5273 22.3203C28.6475 20.0478 29.8154 16.9375 29.8154 13.5859C29.8154 10.2344 28.6221 7.08593 26.5273 4.85156C25.9434 4.21679 25.1436 4.24218 24.6865 4.78808C24.2422 5.29589 24.3818 5.94335 24.877 6.50195C26.5527 8.35546 27.4795 10.8437 27.4795 13.5859C27.4795 16.3154 26.5527 18.8037 24.877 20.6572C24.3818 21.2158 24.2422 21.8633 24.6865 22.3838ZM7.12891 22.3838C7.57324 21.8633 7.4209 21.2158 6.93848 20.6572C5.2627 18.8037 4.33594 16.3154 4.33594 13.5859C4.33594 10.8437 5.2627 8.35546 6.93848 6.50195C7.4209 5.94335 7.57324 5.29589 7.12891 4.78808C6.67188 4.24218 5.87207 4.21679 5.28809 4.85156C3.19336 7.08593 2 10.2344 2 13.5859C2 16.9375 3.16797 20.0478 5.28809 22.3203C5.87207 22.9551 6.67188 22.9297 7.12891 22.3838ZM20.7891 18.6894C21.2461 19.2353 22.1094 19.248 22.6426 18.6133C23.7471 17.2803 24.3691 15.4902 24.3691 13.5859C24.3691 11.6689 23.7471 9.8789 22.6426 8.55859C22.1094 7.91113 21.2461 7.93652 20.7891 8.46972C20.3574 8.99023 20.5352 9.5996 20.9541 10.1836C21.627 11.0976 22.0332 12.3164 22.0332 13.5859C22.0332 14.8428 21.6523 16.0869 20.9541 16.9756C20.5352 17.5596 20.3574 18.1816 20.7891 18.6894ZM11.0264 18.6894C11.4453 18.1816 11.2803 17.5596 10.8613 16.9756C10.1631 16.0869 9.76953 14.8428 9.76953 13.5859C9.76953 12.3164 10.1885 11.0976 10.8613 10.1836C11.2803 9.5996 11.4453 8.99023 11.0264 8.46972C10.5693 7.93652 9.70605 7.91113 9.17285 8.55859C8.06836 9.8789 7.44629 11.6689 7.44629 13.5859C7.44629 15.4902 8.06836 17.2803 9.17285 18.6133C9.70605 19.248 10.5693 19.2353 11.0264 18.6894ZM15.9014 28.2871C16.5869 28.2871 17.0186 27.792 17.0186 27.043V15.7822C17.8184 15.376 18.377 14.5508 18.377 13.5859C18.377 12.2021 17.2852 11.1103 15.9014 11.1103C14.5303 11.1103 13.4385 12.2021 13.4385 13.5859C13.4385 14.5508 13.9844 15.3887 14.7969 15.7822V27.043C14.7969 27.7793 15.2539 28.2871 15.9014 28.2871Z" fill="#8356D6"/>
</svg>
