<svg width="26" height="26" viewBox="0 0 26 26" fill="none" xmlns="http://www.w3.org/2000/svg">
<g clip-path="url(#clip0)">
<path d="M1.37634 22C2.16129 22 2.58065 21.6402 2.82796 20.7632L3.92473 17.5251H9.94624L11.0323 20.7632C11.2903 21.6402 11.7097 22 12.4839 22C13.3548 22 13.914 21.4603 13.914 20.6283C13.914 20.3247 13.8602 20.0661 13.7527 19.7176L9.13979 6.6078C8.77419 5.5172 8.07527 5 6.94624 5C5.87097 5 5.17204 5.52844 4.80645 6.59656L0.16129 19.7963C0.0430108 20.1224 0 20.3922 0 20.662C0 21.4828 0.526882 22 1.37634 22ZM4.55914 15.209L6.89247 8.0582H6.95699L9.29032 15.209H4.55914ZM19.6559 21.9888C21.2473 21.9888 22.7527 21.1118 23.4086 19.7063H23.4624V20.7632C23.4946 21.5503 23.9892 21.9888 24.7312 21.9888C25.4946 21.9888 26 21.5165 26 20.6283V13.3313C26 10.8353 24.129 9.19378 21.1828 9.19378C18.8602 9.19378 17.0538 10.1382 16.4624 11.6448C16.3548 11.9147 16.2903 12.162 16.2903 12.4094C16.2903 13.0503 16.7419 13.4775 17.4086 13.4775C17.871 13.4775 18.2151 13.2976 18.4839 12.9266C19.129 11.7685 19.9032 11.2851 21.086 11.2851C22.5161 11.2851 23.4086 12.1283 23.4086 13.5225V14.3995L20.1828 14.5906C17.2688 14.7593 15.6667 16.0972 15.6667 18.2897C15.6667 20.4934 17.3333 21.9888 19.6559 21.9888ZM20.4194 19.9762C19.1613 19.9762 18.3011 19.2566 18.3011 18.166C18.3011 17.1204 19.1075 16.412 20.5376 16.3221L23.4086 16.1197V17.2103C23.4086 18.7844 22.086 19.9762 20.4194 19.9762Z" fill="#FF9500"/>
</g>
<defs>
<clipPath id="clip0">
<rect width="26" height="26" fill="white"/>
</clipPath>
</defs>
</svg>
