<svg width="26" height="26" viewBox="0 0 26 26" fill="none" xmlns="http://www.w3.org/2000/svg">
<path d="M13.0594 24C13.7518 24 14.1969 23.6384 14.7113 22.8274L16.4523 20.0619H19.2518C22.2491 20.0619 24 18.3029 24 15.3811V7.69055C24 4.76873 22.2491 3 19.2518 3H6.7482C3.7509 3 2 4.75896 2 7.69055V15.3811C2 18.3127 3.7509 20.0619 6.7482 20.0619H9.64658L11.3975 22.8371C11.902 23.6287 12.3669 24 13.0594 24ZM13.0594 21.7427L11.3282 18.6743C10.9622 18.0195 10.6754 17.8339 9.92356 17.8339H6.85701C5.10612 17.8339 4.26529 16.9544 4.26529 15.2638V7.79805C4.26529 6.10749 5.10612 5.23779 6.85701 5.23779H19.143C20.884 5.23779 21.7347 6.10749 21.7347 7.79805V15.2638C21.7347 16.9544 20.884 17.8339 19.143 17.8339H16.1754C15.4236 17.8339 15.1268 18.0098 14.7707 18.6743L13.0594 21.7427ZM14.2464 8.13029C14.5234 7.78827 14.7311 7.34853 14.7311 6.88925C14.7311 6.82085 14.7311 6.76222 14.7113 6.71336C14.2464 6.72313 13.7122 7.00651 13.3858 7.38762C13.1385 7.68078 12.8912 8.13029 12.8912 8.59935C12.8912 8.65798 12.9011 8.73616 12.9011 8.76547C12.9406 8.76547 12.9703 8.77524 13.0297 8.77524C13.4353 8.77524 13.9496 8.50163 14.2464 8.13029ZM14.5629 8.87296C13.8903 8.87296 13.3363 9.27362 12.9703 9.27362C12.5944 9.27362 12.1097 8.88274 11.5162 8.88274C10.3885 8.88274 9.2509 9.81108 9.2509 11.5407C9.2509 12.6352 9.67626 13.7687 10.1906 14.4919C10.6358 15.127 11.0315 15.6352 11.6052 15.6352C12.1493 15.6352 12.4065 15.2638 13.089 15.2638C13.8013 15.2638 13.9496 15.6156 14.5629 15.6156C15.1763 15.6156 15.5917 15.0586 15.9775 14.5212C16.4227 13.9055 16.5908 13.2899 16.5908 13.2606C16.5513 13.2508 15.384 12.772 15.384 11.4528C15.384 10.3094 16.304 9.8013 16.3534 9.75244C15.75 8.88274 14.83 8.87296 14.5629 8.87296Z" fill="#007AFF"/>
</svg>
