<svg width="26" height="26" viewBox="0 0 26 26" fill="none" xmlns="http://www.w3.org/2000/svg">
<path d="M18.6244 16.1265C18.6244 13.7231 17.2655 12.4766 14.806 11.5557L13.7616 11.1626C12.3578 10.6235 11.7401 10.1294 11.7401 9.21973C11.7401 8.41113 12.3128 7.90576 13.2562 7.90576C14.1771 7.90576 14.6937 8.48975 14.8846 9.36572C14.9408 9.64648 15.1654 9.84863 15.4461 9.84863H17.7821C18.1415 9.84863 18.411 9.54541 18.3773 9.18604C18.1527 6.99609 16.7938 5.46875 14.6937 4.97461V2.96436C14.6937 2.63867 14.4242 2.36914 14.0873 2.36914H12.4251C12.0882 2.36914 11.8187 2.63867 11.8187 2.96436V4.97461C9.62876 5.43506 8.19126 7.14209 8.19126 9.5791C8.19126 11.915 9.4603 13.2852 11.9085 14.1499L13.0316 14.5317C14.4466 15.0371 15.0643 15.4526 15.0643 16.4409C15.0643 17.3281 14.4242 17.8447 13.2674 17.8447C12.4139 17.8447 11.7738 17.2944 11.5267 16.4521C11.4593 16.1826 11.2459 16.0029 10.9764 16.0029H8.60678C8.25864 16.0029 7.98911 16.2837 8.00034 16.6318C8.1351 18.7319 9.66245 20.3042 11.9085 20.7759V22.8311C11.9085 23.1567 12.1781 23.4263 12.5038 23.4263H14.1771C14.5028 23.4263 14.7723 23.1567 14.7723 22.8311V20.7646C17.1644 20.2705 18.6244 18.5859 18.6244 16.1265Z" fill="#8FCC52"/>
</svg>
