<svg width="26" height="26" viewBox="0 0 26 26" fill="none" xmlns="http://www.w3.org/2000/svg">
<path d="M2.62891 20.3428C3.38037 20.3428 3.7793 20.0273 4.00195 19.2388L4.8833 16.7153H10.0137L10.895 19.2388C11.1177 20.0273 11.5166 20.3428 12.2681 20.3428C13.0659 20.3428 13.5854 19.8604 13.5854 19.1182C13.5854 18.8398 13.5391 18.6079 13.437 18.3018L9.5498 7.6792C9.20654 6.6958 8.54785 6.22266 7.4624 6.22266C6.43262 6.22266 5.77393 6.6958 5.43066 7.66992L1.51562 18.3853C1.41357 18.6636 1.36719 18.9141 1.36719 19.1553C1.36719 19.8882 1.84961 20.3428 2.62891 20.3428ZM5.48633 14.7021L7.43457 8.8667H7.49951L9.44775 14.7021H5.48633ZM19.0405 20.4077C20.6362 20.4077 21.8608 19.6655 22.4175 18.3481H22.5103V19.3223C22.5288 20.0273 22.9834 20.4077 23.5957 20.4077C24.2544 20.4077 24.6997 19.9995 24.6997 19.2666V10.6851C24.6997 9.94287 24.2544 9.52539 23.5957 9.52539C22.9648 9.52539 22.5103 9.94287 22.5103 10.6758V11.6406H22.4175C21.8516 10.3418 20.5898 9.5625 19.0405 9.5625C16.415 9.5625 14.708 11.6963 14.708 14.9712C14.708 18.2739 16.415 20.4077 19.0405 20.4077ZM19.7271 18.543C18.0664 18.543 17.0366 17.1792 17.0366 14.9805C17.0366 12.8003 18.0757 11.4272 19.7271 11.4272C21.3784 11.4272 22.4546 12.8374 22.4546 14.999C22.4546 17.1699 21.397 18.543 19.7271 18.543Z" fill="#CCAB29"/>
</svg>
