<svg width="26" height="26" viewBox="0 0 26 26" fill="none" xmlns="http://www.w3.org/2000/svg">
<path d="M10.9956 19.9912C12.7139 19.9912 14.3311 19.4971 15.7012 18.6436L20.3281 23.2705C20.6987 23.6411 21.2041 23.8208 21.7207 23.8208C22.8101 23.8208 23.6299 22.9673 23.6299 21.8892C23.6299 21.3838 23.4614 20.9009 23.0796 20.519L18.4976 15.9258C19.4409 14.5107 19.98 12.8149 19.98 10.9956C19.98 6.0542 15.937 2 10.9956 2C6.0542 2 2 6.04297 2 10.9956C2 15.937 6.0542 19.9912 10.9956 19.9912ZM10.9956 17.251C7.54785 17.251 4.729 14.4321 4.729 10.9956C4.729 7.55908 7.54785 4.74023 10.9956 4.74023C14.4321 4.74023 17.251 7.55908 17.251 10.9956C17.251 14.4321 14.4321 17.251 10.9956 17.251Z" fill="#FF9500"/>
</svg>
