<svg width="19" height="23" viewBox="0 0 19 23" fill="none" xmlns="http://www.w3.org/2000/svg">
<path fill-rule="evenodd" clip-rule="evenodd" d="M10.7354 1.66974C11.5437 0.739457 12.895 0.0477069 14.017 0C14.1618 1.28809 13.643 2.5881 12.8588 3.51839C12.0746 4.44867 10.7957 5.1762 9.55304 5.08079C9.38413 3.81655 10.0115 2.49269 10.7354 1.66974ZM8.34563 5.9415C8.87264 6.14828 9.34273 6.33272 9.72289 6.33272C10.0569 6.33272 10.4925 6.16347 11.0079 5.96324C11.8329 5.6427 12.8623 5.24278 14.0059 5.33088C14.7177 5.37858 16.7567 5.59326 18.0838 7.51347C17.9752 7.5731 15.6467 8.9089 15.6708 11.6998C15.707 15.0392 18.6267 16.1484 18.6629 16.1603C18.6388 16.2438 18.1924 17.7466 17.1186 19.2971C16.1896 20.6448 15.2244 21.9806 13.7043 22.0044C12.9701 22.022 12.48 21.8126 11.9702 21.5949C11.4411 21.3689 10.8908 21.1338 10.0245 21.1338C9.10398 21.1338 8.5248 21.3783 7.96694 21.6138C7.48657 21.8165 7.022 22.0126 6.36889 22.0402C4.89698 22.0879 3.78702 20.5852 2.84597 19.2494C0.927674 16.5062 -0.532163 11.5209 1.43439 8.14559C2.41164 6.46392 4.14897 5.40244 6.04314 5.37858C6.85912 5.35825 7.65172 5.66923 8.34563 5.9415Z" fill="black"/>
</svg>
