<svg width="18" height="18" viewBox="0 0 18 18" fill="none" xmlns="http://www.w3.org/2000/svg">
<path d="M5.18526 8.08204C6.8914 8.09622 8.35676 6.70685 8.32924 5.03395C8.30172 3.36813 6.88452 2.00003 5.18526 2.00003C3.83686 2.00003 2.83931 2.7656 2.23391 3.66585C2.07568 3.91395 2 4.21167 2 4.52357V5.56559C2 5.86331 2.07568 6.15394 2.23391 6.40913C2.7774 7.28812 3.8231 8.06786 5.18526 8.08204ZM12.8147 8.08204C14.1769 8.07495 15.2088 7.28103 15.773 6.40913C15.9312 6.15394 16 5.86331 16 5.56559V4.52357C16 4.21167 15.9174 3.91395 15.7661 3.66585C15.1951 2.74433 14.1631 2.0142 12.8147 2.00003C11.1224 1.99294 9.67764 3.36813 9.67076 5.03395C9.66388 6.70685 11.1086 8.08913 12.8147 8.08204ZM3.49287 6.27445C3.27961 6.27445 3.1145 6.10432 3.1145 5.87749V4.20458C3.1145 3.97774 3.27961 3.80762 3.49287 3.80762C3.70614 3.80762 3.87125 3.97774 3.87125 4.20458V5.87749C3.87125 6.10432 3.70614 6.27445 3.49287 6.27445ZM14.514 6.27445C14.2939 6.27445 14.1287 6.10432 14.1287 5.87749V4.20458C14.1287 3.97774 14.2939 3.80762 14.514 3.80762C14.7204 3.80762 14.8855 3.97774 14.8855 4.20458V5.87749C14.8855 6.10432 14.7204 6.27445 14.514 6.27445ZM5.32973 13.5615H7.64816V8.1671C6.97396 8.64913 6.17592 8.91141 5.32973 8.94685V13.5615ZM10.3518 13.5615H12.6703V8.94685C11.8241 8.91141 11.026 8.64913 10.3518 8.1671V13.5615ZM7.64816 14.4547H5.32973V15.1706C5.32973 15.6881 5.67371 16 6.20344 16H6.78133C7.31106 16 7.64816 15.6881 7.64816 15.1706V14.4547ZM12.6703 14.4547H10.3518V15.1706C10.3518 15.6881 10.6889 16 11.2256 16H11.8034C12.3332 16 12.6703 15.6881 12.6703 15.1706V14.4547Z" fill="#FF9500"/>
</svg>
