<svg width="18" height="18" viewBox="0 0 18 18" fill="none" xmlns="http://www.w3.org/2000/svg">
<path d="M5.93758 11.6757H4.88484V6.78797C4.88484 5.7284 5.52742 5.0448 6.45027 5.0448C7.37313 5.0448 8.02254 5.72156 8.02254 6.78797V11.4637C8.02254 13.5761 9.39656 15.0731 11.3311 15.0731C13.3477 15.0731 14.6261 13.5966 14.6261 11.4637V6.51453H15.672C16.253 6.51453 16.4581 5.94031 16.0753 5.4618L14.3663 3.33582C14.0108 2.89148 13.5118 2.88465 13.1427 3.33582L11.4405 5.4618C11.0509 5.94715 11.2696 6.51453 11.8438 6.51453H12.8897V11.58C12.8897 12.6395 12.2471 13.3231 11.3311 13.3231C10.4083 13.3231 9.75887 12.6464 9.75887 11.58V6.90418C9.75887 4.79188 8.37801 3.2948 6.45027 3.2948C4.43367 3.2948 3.14852 4.77137 3.14852 6.90418V11.6757H2.10262C1.5284 11.6757 1.31649 12.2499 1.70613 12.7284L3.40828 14.8475C3.77059 15.2987 4.26277 15.3055 4.63192 14.8475L6.33406 12.7284C6.73055 12.243 6.50496 11.6757 5.93758 11.6757Z" fill="#8356D6"/>
</svg>
