<svg width="32" height="32" viewBox="0 0 32 32" fill="none" xmlns="http://www.w3.org/2000/svg">
<path d="M19.5273 19.3438V21.6875H25.0234C28.7031 21.6875 30.9531 19.5078 30.9531 16.5312C30.9531 14.0469 29.5352 12.043 27.2031 11.1172C27.2148 5.82031 23.3945 2 18.4844 2C15.3672 2 13.0234 3.60547 11.5586 5.72656C8.75781 5.03516 5.45312 7.15625 5.33594 10.4609C2.65234 10.918 1 13.1445 1 15.9805C1 19.1328 3.40234 21.6875 7.30469 21.6875H12.3789V19.3438H7.30469C4.75 19.3438 3.36719 17.8203 3.36719 15.9336C3.36719 13.7422 4.80859 12.207 7.19922 12.207C7.375 12.207 7.44531 12.1133 7.43359 11.9492C7.36328 8.45703 9.85938 7.33203 12.3789 8.07031C12.5312 8.10547 12.625 8.08203 12.6953 7.95312C13.8203 5.90234 15.5664 4.33203 18.4727 4.33203C22.1523 4.33203 24.7773 7.25 24.9531 10.6602C24.9883 11.2812 24.9414 11.9727 24.8945 12.5352C24.8711 12.6992 24.9414 12.793 25.0938 12.8164C27.2383 13.2266 28.5859 14.4688 28.5859 16.4258C28.5859 18.1367 27.3906 19.3438 24.9766 19.3438H19.5273ZM15.9531 28.8594C16.2461 28.8594 16.4922 28.7539 16.7852 28.4844L20.7227 24.7812C20.9336 24.5938 21.0391 24.3711 21.0391 24.0898C21.0391 23.5391 20.5938 23.1406 20.0547 23.1406C19.7852 23.1406 19.5156 23.2578 19.3164 23.4688L17.6875 25.1094L16.9375 25.9766L17.0547 24.2422V14.1875C17.0547 13.6133 16.5625 13.1094 15.9531 13.1094C15.3555 13.1094 14.8516 13.6133 14.8516 14.1875V24.2422L14.9805 25.9766L14.2188 25.1094L12.5898 23.4688C12.3906 23.2578 12.1211 23.1406 11.8516 23.1406C11.3125 23.1406 10.8789 23.5391 10.8789 24.0898C10.8789 24.3711 10.9727 24.5938 11.1836 24.7812L15.1211 28.4844C15.4141 28.7539 15.6719 28.8594 15.9531 28.8594Z" fill="#D329E6"/>
</svg>
