<svg width="32" height="32" viewBox="0 0 32 32" fill="none" xmlns="http://www.w3.org/2000/svg">
<path d="M4.82812 23.9851L14.8828 29.5964C15.5811 29.99 16.292 29.99 16.9902 29.5964L27.0449 23.9851C28.2764 23.2996 28.8857 22.5886 28.8857 20.7986V10.5027C28.8857 9.15698 28.3779 8.3064 27.2354 7.65894L18.3105 2.65698C16.749 1.78101 15.1367 1.78101 13.5625 2.65698L4.6377 7.65894C3.50781 8.3064 3 9.15698 3 10.5027V20.7986C3 22.5886 3.60938 23.2996 4.82812 23.9851ZM21.8906 11.239L12.5088 5.99585L14.5908 4.82788C15.5049 4.30737 16.3682 4.29468 17.2949 4.82788L25.293 9.33472L21.8906 11.239ZM15.9365 14.5652L6.59277 9.33472L10.0967 7.34155L19.4658 12.5847L15.9365 14.5652ZM6.22461 22.0173C5.52637 21.6238 5.28516 21.2302 5.28516 20.5574V11.3406L14.7432 16.6726V26.8289L6.22461 22.0173ZM25.6611 22.0173L17.1299 26.8289V16.6726L26.5879 11.3406V20.5574C26.5879 21.2302 26.3467 21.6238 25.6611 22.0173Z" fill="#EB5757"/>
</svg>
