<svg width="26" height="26" viewBox="0 0 26 26" fill="none" xmlns="http://www.w3.org/2000/svg">
<path d="M6.80108 22.8392C7.29345 23.1274 7.99261 23.038 8.35697 22.4915L19.4845 5.73857C19.8882 5.13245 19.7011 4.44683 19.1792 4.1388C18.6967 3.87051 18.0665 3.97981 17.6627 4.56607L6.5352 21.2693C6.12162 21.8853 6.28902 22.5312 6.80108 22.8392ZM6.81093 13.6778C9.1743 13.6778 10.6219 11.8495 10.6219 8.88843C10.6219 5.90749 9.1546 4.1388 6.81093 4.1388C4.4771 4.1388 3 5.91743 3 8.88843C3 11.8694 4.46726 13.6778 6.81093 13.6778ZM6.81093 11.8495C5.79665 11.8495 5.23535 10.8062 5.23535 8.88843C5.23535 7.0005 5.8065 5.96711 6.81093 5.96711C7.82521 5.96711 8.39636 6.99057 8.39636 8.88843C8.39636 10.8062 7.82521 11.8495 6.81093 11.8495ZM19.1891 22.8889C21.5426 22.8889 23 21.0606 23 18.0995C23 15.1186 21.5327 13.34 19.1891 13.34C16.8552 13.34 15.3781 15.1186 15.3781 18.0995C15.3781 21.0705 16.8355 22.8889 19.1891 22.8889ZM19.1891 21.0606C18.1748 21.0606 17.6135 20.0173 17.6135 18.0995C17.6135 16.2116 18.1748 15.1683 19.1891 15.1683C20.2033 15.1683 20.7745 16.2017 20.7745 18.0995C20.7745 20.0173 20.2033 21.0606 19.1891 21.0606Z" fill="#8FCC52"/>
</svg>
