<svg width="26" height="26" viewBox="0 0 26 26" fill="none" xmlns="http://www.w3.org/2000/svg">
<path d="M6.82959 25.0107H20.0254C22.3052 25.0107 23.6304 23.6743 23.6304 21.2036V9.60254C23.6304 7.12061 22.2939 5.79541 19.8008 5.79541H18.3745C18.3296 3.14502 16.106 1 13.3208 1C10.5356 1 8.30078 3.14502 8.25586 5.79541H6.82959C4.33643 5.79541 3 7.12061 3 9.60254V21.2036C3 23.6855 4.33643 25.0107 6.82959 25.0107ZM13.3208 3.20117C14.8257 3.20117 15.9038 4.34668 15.9487 5.79541H10.6929C10.7266 4.34668 11.8159 3.20117 13.3208 3.20117ZM7.06543 22.439C6.08838 22.439 5.57178 21.9448 5.57178 20.9229V9.8833C5.57178 8.86133 6.08838 8.36719 7.06543 8.36719H19.5649C20.5308 8.36719 21.0698 8.86133 21.0698 9.8833V20.9229C21.0698 21.9448 20.5308 22.439 19.8008 22.439H7.06543Z" fill="#007AFF"/>
</svg>
