<svg width="70" height="51" viewBox="0 0 70 51" fill="none" xmlns="http://www.w3.org/2000/svg">
<path d="M33.4259 18.9864C33.6527 18.9864 33.819 18.8201 33.8493 18.6084C34.2575 16.1591 34.2424 16.144 36.8429 15.6299C37.0697 15.5845 37.2209 15.4333 37.2209 15.2066C37.2209 14.9647 37.0545 14.7983 36.8278 14.7681C34.2424 14.3296 34.2877 14.2994 33.8493 11.8047C33.819 11.5779 33.6527 11.4116 33.4259 11.4116C33.184 11.4116 33.0328 11.5779 33.0026 11.8198C32.5944 14.2238 32.6246 14.2389 30.009 14.7681C29.7822 14.8135 29.631 14.9647 29.631 15.2066C29.631 15.4333 29.7822 15.5845 30.0392 15.6299C32.6095 16.0986 32.5944 16.1288 33.0026 18.5933C33.0328 18.8201 33.184 18.9864 33.4259 18.9864ZM26.0628 29.8874C26.4257 29.8874 26.713 29.6152 26.7583 29.2675C27.2724 25.3214 27.348 25.2911 31.5058 24.5352C31.8686 24.4747 32.1257 24.2025 32.1257 23.8397C32.1257 23.4768 31.8535 23.1895 31.5058 23.1442C27.3782 22.5848 27.2724 22.4789 26.7583 18.427C26.713 18.0641 26.4257 17.792 26.0628 17.792C25.6848 17.792 25.4127 18.0641 25.3673 18.4572C24.8835 22.3731 24.7626 22.4033 20.6048 23.1442C20.257 23.2047 20 23.4768 20 23.8397C20 24.2177 20.257 24.4747 20.6955 24.5352C24.7475 25.155 24.8835 25.2911 25.3673 29.2373C25.4127 29.6152 25.6848 29.8874 26.0628 29.8874ZM36.9487 46.5337C37.4628 46.5337 37.871 46.1557 37.9466 45.6265C39.0654 37.5831 40.1842 36.298 48.1521 35.3908C48.7115 35.3303 49.1046 34.907 49.1046 34.3929C49.1046 33.8638 48.7115 33.4555 48.1521 33.3799C40.3052 32.3821 39.1864 31.2935 37.9466 23.1593C37.8559 22.615 37.4628 22.237 36.9487 22.237C36.4347 22.237 36.0416 22.615 35.9508 23.1593C34.832 31.2028 33.7132 32.4879 25.7453 33.3799C25.1859 33.4404 24.8079 33.8638 24.8079 34.3929C24.8079 34.907 25.1859 35.3303 25.7453 35.3908C33.5771 36.4794 34.6808 37.4924 35.9508 45.6265C36.0416 46.1557 36.4498 46.5337 36.9487 46.5337Z" fill="#333333"/>
</svg>
