<svg width="70" height="51" viewBox="0 0 70 51" fill="none" xmlns="http://www.w3.org/2000/svg">
<path d="M41.8652 35.4394C41.8652 36.9806 40.7253 38.8153 39.3251 38.8153H29.0708C27.6696 38.8153 26.6448 36.9806 26.6448 35.4394V22.7122C26.6448 21.171 27.777 19.6566 29.1781 19.6566H39.3251C40.7253 19.6566 41.8652 21.171 41.8652 22.7122V35.4394ZM44.4545 27.5084C44.5884 27.5084 44.697 27.3999 44.697 27.266V23.4596C44.697 23.3258 44.5884 23.2172 44.4545 23.2172H43.5934L43.5993 21.7851C43.601 21.1274 43.4217 20.4929 43.097 19.9271C42.7613 19.3398 42.1559 18.841 41.7948 18.2726C41.2976 17.4913 40.9019 16.6319 40.6888 15.7243C40.4571 14.737 40.529 13.7118 40.3337 12.7184C40.1832 11.9586 39.6251 11.6186 38.9097 11.5138C38.1225 11.3988 35.9925 11.197 34.3013 11.197C32.6102 11.197 30.1901 11.2932 29.3226 11.5654C28.8051 11.7276 28.444 12.0462 28.3434 12.5476C28.2462 13.0095 28.1734 14.148 28.0906 14.8022C27.7574 17.4467 26.4984 18.6169 26.4984 18.6169C26.4984 18.6169 26.1517 19.0076 26.1094 19.0505C25.4304 19.7296 25 20.6973 25 21.786L25.0042 36.6687C25.0042 37.7093 25.3661 38.6701 26.172 39.4213C27.1723 40.3546 27.7701 40.9779 28.0787 42.9656C28.2326 43.9615 28.1219 44.9704 28.3189 45.9388C28.4204 46.4403 28.8685 46.727 29.386 46.8893C30.2536 47.1615 32.6102 47.2576 34.3013 47.2576C35.9933 47.2576 38.3787 47.1615 39.2463 46.8893C39.7638 46.727 40.124 46.4085 40.2255 45.9071C40.3227 45.4452 40.1062 43.1879 40.896 41.8228C41.1725 41.3394 42.3639 39.5304 42.3639 39.5304C42.3639 39.5304 42.495 39.3406 42.5288 39.3045C43.1528 38.6323 43.6027 37.7041 43.6027 36.6678V27.5084H44.4545Z" fill="#333333"/>
</svg>
