<svg width="70" height="51" viewBox="0 0 70 51" fill="none" xmlns="http://www.w3.org/2000/svg">
<path d="M49.7778 43.0555V34.1666C49.7778 33.2825 49.4266 32.4347 48.8015 31.8096C48.1763 31.1844 47.3285 30.8333 46.4444 30.8333C45.5604 30.8333 44.7125 31.1844 44.0874 31.8096C43.4623 32.4347 43.1111 33.2825 43.1111 34.1666V43.0555C43.1111 43.9395 43.4623 44.7874 44.0874 45.4125C44.7125 46.0376 45.5604 46.3888 46.4444 46.3888V46.3888C47.3285 46.3888 48.1763 46.0376 48.8015 45.4125C49.4266 44.7874 49.7778 43.9395 49.7778 43.0555V43.0555ZM23.1111 46.3888C23.9952 46.3888 24.843 46.0376 25.4681 45.4125C26.0933 44.7874 26.4444 43.9395 26.4444 43.0555V34.1666C26.4444 33.2825 26.0933 32.4347 25.4681 31.8096C24.843 31.1844 23.9952 30.8333 23.1111 30.8333C22.2271 30.8333 21.3792 31.1844 20.7541 31.8096C20.129 32.4347 19.7778 33.2825 19.7778 34.1666V43.0555C19.7778 43.9395 20.129 44.7874 20.7541 45.4125C21.3792 46.0376 22.2271 46.3888 23.1111 46.3888V46.3888ZM34.7778 14.9999C43.5111 14.9999 50.8889 23.1777 50.8889 32.4999V43.0777H52.5556V32.4999C52.5556 22.2888 44.4 13.3333 34.7778 13.3333C25.1556 13.3333 17 22.2888 17 32.4999V43.0777H18.6667V32.4999C18.6667 23.1777 26.0444 14.9999 34.7778 14.9999Z" fill="#333333"/>
</svg>
