<svg width="70" height="51" viewBox="0 0 70 51" fill="none" xmlns="http://www.w3.org/2000/svg">
<path fill-rule="evenodd" clip-rule="evenodd" d="M43.0388 31.034C39.4198 31.304 36.2998 28.464 36.2998 25.284C36.2998 22.1 39.4198 19.394 43.0388 19.524C45.4198 19.614 46.9298 21.114 48.3298 22.584C48.8362 23.1411 48.8297 23.5699 48.8154 24.514C48.8127 24.6884 48.8098 24.8804 48.8098 25.094C48.8098 26.944 48.8098 27.164 48.3098 27.964C47.7588 28.8764 46.9873 29.6356 46.0663 30.1721C45.1453 30.7085 44.1042 31.0049 43.0388 31.034ZM46.3288 23.2406C46.2193 23.3367 46.1486 23.4695 46.1298 23.614V27.034C46.1486 27.1786 46.2193 27.3113 46.3288 27.4075C46.4383 27.5037 46.5791 27.5567 46.7248 27.5567C46.8705 27.5567 47.0113 27.5037 47.1208 27.4075C47.2303 27.3113 47.301 27.1786 47.3198 27.034V23.614C47.301 23.4695 47.2303 23.3367 47.1208 23.2406C47.0113 23.1444 46.8705 23.0913 46.7248 23.0913C46.5791 23.0913 46.4383 23.1444 46.3288 23.2406ZM39.6843 24.5978C39.5088 24.7731 39.4101 25.011 39.4098 25.259C39.4101 25.5069 39.5087 25.7446 39.684 25.9199C39.8592 26.0952 40.0969 26.1938 40.3448 26.194H42.2248C42.4728 26.194 42.7106 26.0955 42.886 25.9202C43.0613 25.7448 43.1598 25.507 43.1598 25.259C43.1598 25.0111 43.0613 24.7732 42.886 24.5979C42.7106 24.4225 42.4728 24.324 42.2248 24.324H40.3458C40.0977 24.324 39.8598 24.4225 39.6843 24.5978ZM41.9655 46.6047C42.2144 46.363 42.3739 46.044 42.4178 45.6999V32.2539C40.8454 32.3622 39.2831 31.9319 37.9878 31.0339V45.5199C38.0034 45.9053 38.1595 46.2716 38.4266 46.5498C38.6937 46.8279 39.0534 46.9987 39.4378 47.0299H41.0478C41.393 46.9962 41.7166 46.8463 41.9655 46.6047ZM27.7808 19.5291C25.3998 19.6191 23.8898 21.1191 22.4898 22.5891C21.9834 23.1462 21.9899 23.575 22.0042 24.519C22.0069 24.6934 22.0098 24.8854 22.0098 25.0991C22.0098 26.9491 22.0098 27.1691 22.5098 27.9691C23.0608 28.8814 23.8323 29.6407 24.7533 30.1771C25.6743 30.7135 26.7154 31.0099 27.7808 31.0391C31.3998 31.3091 34.5198 28.4691 34.5198 25.2891C34.5198 22.1091 31.3998 19.4001 27.7808 19.5291ZM24.6898 27.0391C24.671 27.1836 24.6003 27.3164 24.4908 27.4126C24.3813 27.5087 24.2405 27.5618 24.0948 27.5618C23.9491 27.5618 23.8083 27.5087 23.6988 27.4126C23.5893 27.3164 23.5186 27.1836 23.4998 27.0391V23.6191C23.5186 23.4746 23.5893 23.3418 23.6988 23.2456C23.8083 23.1494 23.9491 23.0964 24.0948 23.0964C24.2405 23.0964 24.3813 23.1494 24.4908 23.2456C24.6003 23.3418 24.671 23.4746 24.6898 23.6191V27.0391ZM30.4748 26.1991H28.5958C28.3478 26.1991 28.11 26.1006 27.9347 25.9252C27.7593 25.7499 27.6608 25.5121 27.6608 25.2641C27.6608 25.0161 27.7593 24.7783 27.9347 24.6029C28.11 24.4276 28.3478 24.3291 28.5958 24.3291H30.4748C30.7228 24.3291 30.9606 24.4276 31.1359 24.6029C31.3113 24.7783 31.4098 25.0161 31.4098 25.2641C31.4098 25.5121 31.3113 25.7499 31.1359 25.9252C30.9606 26.1006 30.7228 26.1991 30.4748 26.1991ZM28.8502 46.6138C28.6013 46.3722 28.4419 46.0532 28.3979 45.7091V32.2591C29.9703 32.3668 31.5325 31.9366 32.8279 31.0391V45.5291C32.8124 45.9144 32.6563 46.2807 32.3892 46.5589C32.122 46.8371 31.7623 47.0079 31.3779 47.0391H29.7679C29.4227 47.0054 29.0991 46.8554 28.8502 46.6138Z" fill="#333333"/>
</svg>
