<svg width="70" height="51" viewBox="0 0 70 51" fill="none" xmlns="http://www.w3.org/2000/svg">
<path fill-rule="evenodd" clip-rule="evenodd" d="M29 18H41.5303C45.3963 18 48.5303 21.134 48.5303 25V38C48.5303 41.866 45.3963 45 41.5303 45H29C25.134 45 22 41.866 22 38V25C22 21.134 25.134 18 29 18ZM20 25C20 20.0294 24.0294 16 29 16H41.5303C46.5009 16 50.5303 20.0294 50.5303 25V38C50.5303 42.9706 46.5009 47 41.5303 47H29C24.0294 47 20 42.9706 20 38V25ZM37.687 25C37.0764 25.026 36.3409 25.4025 35.9009 25.9088C35.5069 26.3567 35.1655 27.0773 35.2574 27.7653C35.9338 27.8173 36.6298 27.4213 37.0567 26.915C37.4835 26.4086 37.7658 25.7011 37.687 25ZM35.3499 28.4467C35.143 28.4467 34.8871 28.3463 34.6003 28.2337C34.2226 28.0855 33.7912 27.9163 33.3471 27.9274C32.3161 27.9403 31.3705 28.5181 30.8386 29.4334C29.7683 31.2704 30.5628 33.9838 31.6069 35.4769C32.1191 36.2039 32.7232 37.0218 33.5244 36.9959C33.8798 36.9808 34.1327 36.8741 34.3941 36.7638C34.6978 36.6356 35.013 36.5025 35.514 36.5025C35.9855 36.5025 36.285 36.6305 36.573 36.7535C36.8505 36.872 37.1172 36.9859 37.5168 36.9764C38.3442 36.9634 38.8695 36.2364 39.3752 35.5028C39.9596 34.659 40.2025 33.841 40.2157 33.7956C40.196 33.7891 38.6069 33.1854 38.5872 31.3678C38.574 29.8488 39.8414 29.1218 39.9005 29.0893C39.1782 28.0442 38.0684 27.9274 37.681 27.9014C37.0585 27.8534 36.4983 28.0711 36.0492 28.2456C35.7688 28.3545 35.5316 28.4467 35.3499 28.4467Z" fill="#333333"/>
</svg>
