<svg width="70" height="51" viewBox="0 0 70 51" fill="none" xmlns="http://www.w3.org/2000/svg">
<path fill-rule="evenodd" clip-rule="evenodd" d="M41.3375 8.6626H29.4625C26.4456 8.6626 24 11.1082 24 14.1251V41.4376C24 44.4545 26.4456 46.9001 29.4625 46.9001H41.3375C44.3544 46.9001 46.8 44.4545 46.8 41.4376V14.1251C46.8 11.1082 44.3544 8.6626 41.3375 8.6626ZM25.9 14.1251C25.9 12.1576 27.495 10.5626 29.4625 10.5626H30.6591C30.8969 10.5677 30.9387 10.7693 30.9875 11.0049C31.0574 11.3425 31.1418 11.75 31.8374 11.75H35.3999H38.9624C39.658 11.75 39.7424 11.3425 39.8123 11.0049C39.8611 10.7693 39.9029 10.5677 40.1407 10.5626H41.3375C43.305 10.5626 44.9 12.1576 44.9 14.1251V41.4376C44.9 43.4051 43.305 45.0001 41.3375 45.0001H29.4625C27.495 45.0001 25.9 43.4051 25.9 41.4376V14.1251Z" fill="#333333"/>
</svg>
