<svg width="70" height="51" viewBox="0 0 70 51" fill="none" xmlns="http://www.w3.org/2000/svg">
<path fill-rule="evenodd" clip-rule="evenodd" d="M44.6875 11.375H18.5625C17.9067 11.375 17.375 11.9067 17.375 12.5625V43.4375C17.375 44.0933 17.9067 44.625 18.5625 44.625H44.6875C45.3433 44.625 45.875 44.0933 45.875 43.4375V12.5625C45.875 11.9067 45.3433 11.375 44.6875 11.375ZM18.5625 9C16.595 9 15 10.595 15 12.5625V43.4375C15 45.405 16.595 47 18.5625 47H44.6875C46.655 47 48.25 45.405 48.25 43.4375V12.5625C48.25 10.595 46.655 9 44.6875 9H18.5625ZM55.375 14.9375V43.4375L54.3002 46.662C54.2641 46.7703 54.1109 46.7703 54.0748 46.662L53 43.4375V14.9375C53 14.2817 53.5317 13.75 54.1875 13.75C54.8433 13.75 55.375 14.2817 55.375 14.9375Z" fill="#333333"/>
</svg>
