<svg width="70" height="51" viewBox="0 0 70 51" fill="none" xmlns="http://www.w3.org/2000/svg">
<path d="M24.7901 15.15L24.3401 15.03L23.9601 15.31L23.8301 15.39C23.4579 15.5748 23.0601 15.7029 22.6501 15.77C20.4487 16.0915 18.2241 16.2253 16.0001 16.17C13.7761 16.2253 11.5514 16.0915 9.35007 15.77C8.93285 15.706 8.52806 15.5779 8.15007 15.39C8.10334 15.3693 8.05962 15.3424 8.02007 15.31L7.64007 15.03L7.18007 15.15C5.71058 15.4586 4.39263 16.2649 3.44886 17.4328C2.5051 18.6007 1.99335 20.0585 2.00007 21.56V39.56C1.99578 41.2513 2.57407 42.8924 3.63767 44.2073C4.70128 45.5222 6.18528 46.4308 7.84007 46.78L8.08007 46.83C8.59186 46.9366 9.10939 47.0133 9.63006 47.06C11.0701 47.21 13.2201 47.28 16.0001 47.28C18.7801 47.28 20.9001 47.21 22.2601 47.08C22.7912 47.0325 23.3188 46.9524 23.8401 46.84L24.1601 46.78C25.814 46.429 27.2969 45.52 28.3602 44.2055C29.4235 42.8909 30.0025 41.2508 30.0001 39.56V21.56C30.0073 20.0538 29.4919 18.5917 28.5419 17.4229C27.5919 16.254 26.266 15.4508 24.7901 15.15V15.15ZM28.0001 39.49C28 40.7074 27.5879 41.889 26.8307 42.8423C26.0735 43.7956 25.0159 44.4645 23.8301 44.74L23.3701 44.83C22.9406 44.9175 22.5066 44.9809 22.0701 45.02C20.7901 45.14 18.7501 45.21 16.0001 45.21C13.2501 45.21 11.2001 45.14 9.83007 45C9.36525 44.9665 8.90381 44.8963 8.45007 44.79H8.17007C6.98424 44.5145 5.92663 43.8456 5.16944 42.8923C4.41225 41.939 4.00009 40.7574 4.00007 39.54V21.56C3.99768 20.5756 4.32105 19.6181 4.91978 18.8366C5.5185 18.0552 6.35893 17.4939 7.31007 17.24C7.83349 17.4907 8.38858 17.669 8.96007 17.77C11.2761 18.1204 13.6184 18.2676 15.9601 18.21C18.3018 18.2676 20.644 18.1204 22.9601 17.77C23.5316 17.669 24.0866 17.4907 24.6101 17.24C25.576 17.4787 26.4345 18.0336 27.0487 18.8164C27.663 19.5992 27.9979 20.565 28.0001 21.56V39.49Z" fill="#333333"/>
<path d="M15.9999 15.28C19.9211 15.28 23.0999 14.9935 23.0999 14.64C23.0999 14.2865 19.9211 14 15.9999 14C12.0787 14 8.8999 14.2865 8.8999 14.64C8.8999 14.9935 12.0787 15.28 15.9999 15.28Z" fill="#333333"/>
<path d="M68.5197 32.9401C68.5197 32.7201 68.5197 32.4201 68.4597 32.1901C68.3997 31.9601 68.2697 31.1901 68.2697 31.1901L66.4897 24.1901C66.3559 23.2489 65.8786 22.3904 65.1497 21.7801C64.4461 21.1728 63.5491 20.836 62.6197 20.8301H38.6197C37.6919 20.8362 36.796 21.1696 36.0899 21.7714C35.3838 22.3733 34.9127 23.205 34.7597 24.1201L33.0097 31.1201C33.0097 31.1201 32.8497 31.8401 32.8197 32.1201V32.2301C32.8108 32.3866 32.8108 32.5435 32.8197 32.7001V42.2201C32.8275 43.367 33.2859 44.4648 34.096 45.2767C34.906 46.0887 36.0028 46.5496 37.1497 46.5601H64.1497C65.3052 46.5601 66.4137 46.1024 67.2327 45.2872C68.0517 44.472 68.5144 43.3656 68.5197 42.2101V32.9401ZM66.7797 42.2301C66.7781 42.5732 66.7102 42.9128 66.5797 43.2301C66.442 43.5452 66.2489 43.833 66.0097 44.0801C65.7611 44.3196 65.4693 44.5097 65.1497 44.6401C64.8332 44.7722 64.4926 44.8369 64.1497 44.8301H37.1497C36.8071 44.8333 36.4672 44.7687 36.1497 44.6401C35.8331 44.5096 35.5445 44.3195 35.2997 44.0801C35.0605 43.833 34.8674 43.5452 34.7297 43.2301C34.5991 42.9128 34.5312 42.5732 34.5297 42.2301V36.6601C34.7847 36.858 35.0595 37.0289 35.3497 37.1701C35.9147 37.428 36.5286 37.561 37.1497 37.5601H64.1497C64.7752 37.5622 65.3933 37.4256 65.9597 37.1601C66.2474 37.0281 66.5192 36.8637 66.7697 36.6701L66.7797 42.2301ZM66.0097 35.0601C65.7672 35.304 65.479 35.4975 65.1615 35.6297C64.844 35.7618 64.5036 35.8299 64.1597 35.8301H37.1497C36.4643 35.8328 35.8054 35.5659 35.3152 35.0869C34.8249 34.6079 34.5428 33.9553 34.5297 33.2701C34.5297 32.9901 34.5297 32.5001 34.5897 32.3301C34.6497 32.1601 34.6897 31.7601 34.7397 31.5401L36.4897 24.5401V24.4101C36.5653 23.8873 36.83 23.4103 37.2335 23.0694C37.6371 22.7285 38.1516 22.5473 38.6797 22.5601H62.6797C63.1888 22.5702 63.6781 22.7591 64.0621 23.0937C64.446 23.4282 64.7 23.8871 64.7797 24.3901L66.5697 31.4701C66.5697 31.6301 66.6997 32.0901 66.7397 32.3701C66.7797 32.6501 66.7997 33.0701 66.7997 33.1901C66.8019 33.5391 66.733 33.8849 66.5971 34.2064C66.4613 34.5279 66.2614 34.8184 66.0097 35.0601V35.0601Z" fill="#333333"/>
<path d="M48.7998 29.0401C48.5898 28.9901 47.8998 28.7901 47.8898 28.3301C47.8798 27.8701 48.3998 27.7401 48.6198 27.6601C48.2223 27.4009 47.754 27.2716 47.2798 27.2901C46.9438 27.286 46.6084 27.3195 46.2798 27.3901C46.1503 27.4302 46.0154 27.4504 45.8798 27.4501C45.7409 27.4505 45.6027 27.4303 45.4698 27.3901C45.2203 27.3325 44.9658 27.299 44.7098 27.2901C44.1678 27.2716 43.6356 27.4373 43.1998 27.7601C42.5898 28.3001 42.9698 29.1201 43.6498 29.6201C43.9649 29.9025 44.3672 30.0684 44.7898 30.0901V30.0901C44.9685 30.0865 45.1463 30.063 45.3198 30.0201C45.5263 29.9716 45.7378 29.9481 45.9498 29.9501C46.1519 29.9487 46.3535 29.9722 46.5498 30.0201C46.736 30.068 46.9276 30.0915 47.1198 30.0901C47.3483 30.0877 47.5739 30.0396 47.7835 29.9486C47.993 29.8575 48.1822 29.7254 48.3398 29.5601C48.5377 29.4238 48.7075 29.2506 48.8398 29.0501H48.7898L48.7998 29.0401Z" fill="#333333"/>
<path d="M51.8897 26.6201H50.7797V27.2701H49.9897V27.7401H50.7697V29.3001C50.7697 29.8401 51.1997 30.0601 52.2597 30.0601H52.8597V29.5601H52.4497C52.0297 29.5601 51.8497 29.4701 51.8497 29.2401V27.7401H52.8497V27.2701H51.8497L51.8897 26.6201Z" fill="#333333"/>
<path d="M55.84 29.42L54.48 27.27H53.29L55.27 30.04H56.41L58.36 27.27H57.2L55.84 29.42Z" fill="#333333"/>
<path d="M45.8797 27.2501H45.9697C46.321 27.2495 46.6659 27.1564 46.9697 26.9801C47.2497 26.8101 47.3897 26.5801 47.3497 26.3801H47.2997C46.9194 26.3865 46.546 26.4824 46.2097 26.6601C45.9897 26.7901 45.7597 27.0101 45.8197 27.2401L45.8797 27.2501Z" fill="#333333"/>
</svg>
