<svg width="20" height="20" viewBox="0 0 20 20" fill="none" xmlns="http://www.w3.org/2000/svg">
<path d="M6.18262 17.6338H14.208C15.6846 17.6338 16.5527 16.7656 16.5527 15.207V8.15234C16.5527 6.58691 15.6846 5.72559 14.1123 5.72559H13.3672C13.3467 4.00977 11.9248 2.65625 10.1475 2.65625C8.37012 2.65625 6.94824 4.00977 6.92773 5.72559H6.18262C4.61035 5.72559 3.74219 6.58691 3.74219 8.15234V15.207C3.74219 16.7725 4.61035 17.6338 6.18262 17.6338ZM10.1475 4.16016C11.0361 4.16016 11.6514 4.84375 11.6719 5.72559H8.62305C8.62305 4.86426 9.24512 4.16016 10.1475 4.16016Z" fill="#007AFF"/>
</svg>
