<svg width="20" height="20" viewBox="0 0 20 20" fill="none" xmlns="http://www.w3.org/2000/svg">
<path d="M12.0977 3.96289C12.6123 3.34863 12.9692 2.51025 12.9692 1.66357C12.9692 1.54736 12.9609 1.43115 12.936 1.33984C12.1143 1.37305 11.1182 1.8877 10.5205 2.58496C10.0557 3.11621 9.62402 3.96289 9.62402 4.80957C9.62402 4.94238 9.64062 5.06689 9.65723 5.1084C9.70703 5.1167 9.79004 5.1333 9.87305 5.1333C10.6201 5.1333 11.5498 4.63525 12.0977 3.96289ZM12.687 5.30762C11.4419 5.30762 10.4375 6.06299 9.79004 6.06299C9.10107 6.06299 8.20459 5.35742 7.12549 5.35742C5.0752 5.35742 3 7.05078 3 10.2383C3 12.2305 3.76367 14.3306 4.71826 15.6836C5.53174 16.8291 6.24561 17.7671 7.2666 17.7671C8.2876 17.7671 8.73584 17.0947 9.98926 17.0947C11.2759 17.0947 11.5581 17.7505 12.687 17.7505C13.7993 17.7505 14.5381 16.7295 15.2354 15.7251C16.0239 14.5713 16.3477 13.4507 16.3643 13.3926C16.2979 13.376 14.1646 12.5044 14.1646 10.0723C14.1646 7.96387 15.8413 7.01758 15.9326 6.94287C14.8369 5.35742 13.1519 5.30762 12.687 5.30762Z" fill="#EB5757"/>
</svg>
