<svg width="20" height="20" viewBox="0 0 20 20" fill="none" xmlns="http://www.w3.org/2000/svg">
<path d="M16.4463 11.4863C16.4463 8.57422 14.4775 6.56445 11.415 6.56445H7.66211L6.13086 6.63281L7.13574 5.80566L8.45508 4.51367C8.64648 4.3291 8.7832 4.10352 8.7832 3.78906C8.7832 3.22852 8.38672 2.80469 7.78516 2.80469C7.52539 2.80469 7.25195 2.9209 7.04688 3.12598L3.30762 6.83105C3.11621 7.02246 3 7.31641 3 7.58984C3 7.87012 3.11621 8.16406 3.30762 8.34863L7.04688 12.0537C7.25195 12.2588 7.52539 12.375 7.78516 12.375C8.38672 12.375 8.7832 11.9512 8.7832 11.3906C8.7832 11.0762 8.64648 10.8506 8.45508 10.6592L7.13574 9.38086L6.13086 8.55371L7.66211 8.62207H11.3262C13.2539 8.62207 14.4297 9.79102 14.4297 11.4521C14.4297 13.1133 13.2539 14.2891 11.3262 14.2891H9.68555C9.09082 14.2891 8.63965 14.7471 8.63965 15.3213C8.63965 15.8887 9.09082 16.3467 9.68555 16.3467H11.4697C14.5049 16.3467 16.4463 14.4463 16.4463 11.4863Z" fill="#007AFF"/>
</svg>
