<?xml version="1.0" standalone="no"?>
<!DOCTYPE svg PUBLIC "-//W3C//DTD SVG 20010904//EN"
 "http://www.w3.org/TR/2001/REC-SVG-20010904/DTD/svg10.dtd">
<svg version="1.0" xmlns="http://www.w3.org/2000/svg"
 width="500.000000pt" height="500.000000pt" viewBox="0 0 500.000000 500.000000"
 preserveAspectRatio="xMidYMid meet">
<metadata>
Created by potrace 1.11, written by Peter Selinger 2001-2013
</metadata>
<g transform="translate(0.000000,500.000000) scale(0.100000,-0.100000)"
fill="#000000" stroke="none">
<path d="M738 4984 c-342 -62 -619 -320 -710 -664 l-23 -85 0 -1735 c0 -1621
1 -1739 18 -1803 85 -333 330 -582 657 -669 l85 -23 1735 0 c1621 0 1739 1
1803 18 333 85 582 330 669 657 l23 85 0 1730 c0 1619 -1 1734 -18 1799 -98
383 -391 648 -767 695 -57 8 -628 11 -1740 10 -1365 -1 -1668 -3 -1732 -15z
m2392 -850 c0 -95 -20 -176 -70 -279 -101 -208 -318 -365 -506 -365 -63 0 -69
11 -59 103 27 230 172 438 380 545 66 34 182 71 223 72 l32 0 0 -76z m148
-705 c143 -33 247 -94 356 -210 l69 -72 -29 -20 c-16 -11 -67 -59 -114 -106
-67 -68 -94 -104 -127 -171 -127 -258 -84 -560 109 -766 59 -62 198 -164 225
-164 17 0 17 3 -13 -82 -105 -294 -360 -640 -530 -720 -62 -30 -77 -33 -154
-32 -90 2 -122 10 -261 68 -181 76 -308 72 -531 -16 -124 -48 -139 -52 -223
-52 -82 -1 -96 2 -157 32 -168 82 -435 454 -548 762 -73 199 -120 448 -120
638 0 529 333 922 780 923 105 0 156 -12 335 -81 155 -59 187 -61 310 -15 327
121 413 132 623 84z"/>
</g>
</svg>
