<svg width="18" height="19" viewBox="0 0 18 19" fill="none" xmlns="http://www.w3.org/2000/svg">
<path d="M8.86405 9.50507C11.3179 9.50507 13.2911 7.35166 13.2911 4.69745C13.2911 2.09332 11.3079 0 8.86405 0C6.42018 0 4.417 2.11335 4.42702 4.70746C4.43703 7.36167 6.40015 9.50507 8.86405 9.50507ZM8.86405 7.572C7.54196 7.572 6.43019 6.33004 6.43019 4.70746C6.42018 3.155 7.54196 1.93306 8.86405 1.93306C10.1861 1.93306 11.2879 3.13497 11.2879 4.69745C11.2879 6.31 10.1861 7.572 8.86405 7.572ZM2.65421 18.8499H15.0639C16.8367 18.8499 17.7081 18.269 17.7081 17.027C17.7081 14.1725 14.1725 10.6068 8.85404 10.6068C3.53561 10.6068 0 14.1725 0 17.027C0 18.269 0.871382 18.8499 2.65421 18.8499ZM2.46391 16.9168C2.24356 16.9168 2.16343 16.8467 2.16343 16.6764C2.16343 15.2342 4.58727 12.5399 8.85404 12.5399C13.1208 12.5399 15.5446 15.2342 15.5446 16.6764C15.5446 16.8467 15.4645 16.9168 15.2442 16.9168H2.46391Z" fill="black"/>
</svg>
