<svg width="10" height="10" viewBox="0 0 10 10" fill="none" xmlns="http://www.w3.org/2000/svg">
<path opacity="0.8" d="M0.488037 8.05799C0.0983887 8.4408 0.0847168 9.15858 0.501709 9.57557C0.911865 9.98572 1.62964 9.97205 2.01245 9.5824L4.99976 6.60193L7.97339 9.5824C8.37671 9.97889 9.08081 9.98572 9.49097 9.56873C9.90796 9.15174 9.90112 8.45447 9.50464 8.05115L6.52417 5.07752L9.50464 2.09705C9.90112 1.69373 9.90796 0.996465 9.49097 0.579473C9.08081 0.162481 8.37671 0.169317 7.97339 0.565801L4.99976 3.54627L2.01245 0.565801C1.62964 0.176153 0.911865 0.162481 0.501709 0.579473C0.0847168 0.989629 0.0983887 1.7074 0.488037 2.09022L3.46851 5.07752L0.488037 8.05799Z" fill="#67676B"/>
</svg>
