<svg width="12" height="12" viewBox="0 0 12 12" fill="none" xmlns="http://www.w3.org/2000/svg">
<path opacity="0.8" d="M0.587891 9.87488C0.181152 10.2733 0.172852 11.0038 0.596191 11.4271C1.01953 11.8505 1.75 11.8339 2.14844 11.4354L6 7.58386L9.85156 11.4271C10.2666 11.8422 10.9805 11.8505 11.4038 11.4188C11.8271 10.9955 11.8271 10.2816 11.4121 9.86658L7.56885 6.02332L11.4121 2.17175C11.8271 1.75671 11.8271 1.04285 11.4038 0.619507C10.9805 0.187866 10.2666 0.196167 9.85156 0.611206L6 4.45447L2.14844 0.602905C1.75 0.204468 1.01953 0.187866 0.596191 0.611206C0.172852 1.03455 0.181152 1.76501 0.587891 2.17175L4.43945 6.02332L0.587891 9.87488Z" fill="white"/>
</svg>
