<svg width="48" height="30" viewBox="0 0 48 30" fill="none" xmlns="http://www.w3.org/2000/svg">
<rect x="1" y="1" width="46" height="28" rx="14" stroke="#111112" stroke-width="2"/>
<path fill-rule="evenodd" clip-rule="evenodd" d="M25.2049 10.7364C24.9899 10.5359 24.8555 10.2502 24.8555 9.93304C24.8555 9.32659 25.3471 8.83496 25.9536 8.83496C26.2153 8.83496 26.4556 8.92653 26.6443 9.07938C26.6779 9.10057 26.7111 9.12601 26.7436 9.1565L32.1594 14.1776C32.3812 14.3856 32.5158 14.6977 32.5158 15.0024C32.5158 15.307 32.3812 15.6191 32.1594 15.8271L26.7356 20.8501C26.6945 20.8886 26.6511 20.9214 26.6058 20.9493C26.4235 21.0842 26.1978 21.1639 25.9536 21.1639C25.3471 21.1639 24.8555 20.6723 24.8555 20.0659C24.8555 19.7466 24.9917 19.4591 25.2093 19.2585L25.2237 19.2394L27.1782 17.4469L28.8175 15.9986H27.1069H16.7433C15.9989 15.9986 15.5 15.6711 15.5 15.0024C15.5 14.3336 15.9989 13.9986 16.7433 13.9986H27.1069H28.8175L27.1782 12.5578L25.2261 10.7693L25.2049 10.7364Z" fill="#111112"/>
</svg>
