<svg width="25" height="23" viewBox="0 0 25 23" fill="none" xmlns="http://www.w3.org/2000/svg">
<path opacity="0.8" d="M4.48438 22.6367H20.7266C23.3398 22.6367 24.7227 21.2422 24.7227 18.6641V4.4375C24.7227 1.85938 23.3398 0.476563 20.7266 0.476563L4.48438 0.476562C1.88281 0.476562 0.488281 1.85938 0.488281 4.4375L0.488281 18.6641C0.488281 21.2539 1.88281 22.6367 4.48438 22.6367ZM4.60156 19.9531C3.66406 19.9531 3.17188 19.4844 3.17188 18.5117V7.91797C3.17188 6.93359 3.66406 6.47656 4.60156 6.47656H20.6094C21.5352 6.47656 22.0391 6.93359 22.0391 7.91797V18.5117C22.0391 19.4844 21.5352 19.9531 20.6094 19.9531H4.60156ZM10.3789 10.3906H11.0586C11.4922 10.3906 11.6328 10.2617 11.6328 9.83984V9.14844C11.6328 8.72656 11.4922 8.59766 11.0586 8.59766H10.3789C9.94531 8.59766 9.80469 8.72656 9.80469 9.14844V9.83984C9.80469 10.2617 9.94531 10.3906 10.3789 10.3906ZM14.1523 10.3906H14.8438C15.2656 10.3906 15.4062 10.2617 15.4062 9.83984V9.14844C15.4062 8.72656 15.2656 8.59766 14.8438 8.59766H14.1523C13.7305 8.59766 13.5781 8.72656 13.5781 9.14844V9.83984C13.5781 10.2617 13.7305 10.3906 14.1523 10.3906ZM17.9258 10.3906H18.6172C19.0391 10.3906 19.1797 10.2617 19.1797 9.83984V9.14844C19.1797 8.72656 19.0391 8.59766 18.6172 8.59766H17.9258C17.5039 8.59766 17.3633 8.72656 17.3633 9.14844V9.83984C17.3633 10.2617 17.5039 10.3906 17.9258 10.3906ZM6.59375 14.1055H7.28516C7.70703 14.1055 7.85938 13.9766 7.85938 13.5547V12.8633C7.85938 12.4414 7.70703 12.3125 7.28516 12.3125H6.59375C6.17188 12.3125 6.03125 12.4414 6.03125 12.8633V13.5547C6.03125 13.9766 6.17188 14.1055 6.59375 14.1055ZM10.3789 14.1055H11.0586C11.4922 14.1055 11.6328 13.9766 11.6328 13.5547V12.8633C11.6328 12.4414 11.4922 12.3125 11.0586 12.3125H10.3789C9.94531 12.3125 9.80469 12.4414 9.80469 12.8633V13.5547C9.80469 13.9766 9.94531 14.1055 10.3789 14.1055ZM14.1523 14.1055H14.8438C15.2656 14.1055 15.4062 13.9766 15.4062 13.5547V12.8633C15.4062 12.4414 15.2656 12.3125 14.8438 12.3125H14.1523C13.7305 12.3125 13.5781 12.4414 13.5781 12.8633V13.5547C13.5781 13.9766 13.7305 14.1055 14.1523 14.1055ZM17.9258 14.1055H18.6172C19.0391 14.1055 19.1797 13.9766 19.1797 13.5547V12.8633C19.1797 12.4414 19.0391 12.3125 18.6172 12.3125H17.9258C17.5039 12.3125 17.3633 12.4414 17.3633 12.8633V13.5547C17.3633 13.9766 17.5039 14.1055 17.9258 14.1055ZM6.59375 17.832H7.28516C7.70703 17.832 7.85938 17.6914 7.85938 17.2695V16.5898C7.85938 16.168 7.70703 16.0273 7.28516 16.0273H6.59375C6.17188 16.0273 6.03125 16.168 6.03125 16.5898V17.2695C6.03125 17.6914 6.17188 17.832 6.59375 17.832ZM10.3789 17.832H11.0586C11.4922 17.832 11.6328 17.6914 11.6328 17.2695V16.5898C11.6328 16.168 11.4922 16.0273 11.0586 16.0273H10.3789C9.94531 16.0273 9.80469 16.168 9.80469 16.5898V17.2695C9.80469 17.6914 9.94531 17.832 10.3789 17.832ZM14.1523 17.832H14.8438C15.2656 17.832 15.4062 17.6914 15.4062 17.2695V16.5898C15.4062 16.168 15.2656 16.0273 14.8438 16.0273H14.1523C13.7305 16.0273 13.5781 16.168 13.5781 16.5898V17.2695C13.5781 17.6914 13.7305 17.832 14.1523 17.832Z" fill="white"/>
</svg>
