<svg width="19" height="17" viewBox="0 0 19 17" fill="none" xmlns="http://www.w3.org/2000/svg">
<path d="M9.50098 16.0684C9.84961 16.0684 10.248 15.9023 10.6465 15.645C15.1455 12.7314 18.0176 9.22021 18.0176 5.75049C18.0176 2.53809 15.8677 0.363281 13.1284 0.363281C11.6011 0.363281 10.3643 1.02734 9.50098 2.33057C8.6377 1.02734 7.40088 0.363281 5.87354 0.363281C3.13428 0.363281 0.984375 2.53809 0.984375 5.75049C0.984375 9.22021 3.84814 12.7314 8.35547 15.645C8.75391 15.9023 9.15234 16.0684 9.50098 16.0684ZM9.50098 14.0098C9.45117 14.0098 9.40137 13.9849 9.32666 13.9351C5.5083 11.3701 2.96826 8.39844 2.96826 5.73389C2.96826 3.67529 4.26318 2.33057 6.01465 2.33057C7.39258 2.33057 8.29736 3.24365 8.79541 4.16504C8.98633 4.49707 9.17725 4.67969 9.50098 4.67969C9.82471 4.67969 10.0322 4.49707 10.2148 4.16504C10.7129 3.24365 11.6094 2.33057 12.9873 2.33057C14.7388 2.33057 16.0337 3.67529 16.0337 5.73389C16.0337 8.39844 13.4937 11.3701 9.67529 13.9351C9.60059 13.9849 9.54248 14.0098 9.50098 14.0098Z" fill="#0479FF"/>
</svg>
