<svg width="22" height="25" viewBox="0 0 22 25" fill="none" xmlns="http://www.w3.org/2000/svg">
<path opacity="0.8" d="M4.19336 24.5264H17.4004C19.6689 24.5264 21.0054 23.1899 21.0054 20.7192V9.11816C21.0054 6.63623 19.6689 5.31104 17.1758 5.31104H15.7383C15.6934 2.66064 13.4697 0.515625 10.6846 0.515625C7.89941 0.515625 5.67578 2.66064 5.63086 5.31104H4.19336C1.71143 5.31104 0.36377 6.63623 0.36377 9.11816V20.7192C0.36377 23.2012 1.71143 24.5264 4.19336 24.5264ZM10.6846 2.7168C12.1895 2.7168 13.2788 3.8623 13.3125 5.31104H8.05664C8.09033 3.8623 9.17969 2.7168 10.6846 2.7168ZM4.4292 21.9546C3.46338 21.9546 2.93555 21.4604 2.93555 20.4385V9.39893C2.93555 8.37695 3.46338 7.88281 4.4292 7.88281H16.9399C17.8945 7.88281 18.4336 8.37695 18.4336 9.39893V20.4385C18.4336 21.4604 17.8945 21.9546 17.1646 21.9546H4.4292Z" fill="white"/>
</svg>
