<svg width="27" height="30" viewBox="0 0 27 30" fill="none" xmlns="http://www.w3.org/2000/svg">
<path opacity="0.8" d="M1.65576 22.1797C2.72266 24.0327 5.48535 24.4033 9.27002 23.3252C10.2358 27.0537 11.9204 29.21 14.043 29.21C16.1543 29.21 17.8389 27.0537 18.8047 23.3252C19.2651 23.4487 19.7031 23.561 20.1411 23.6509C20.4668 24.4258 21.2417 24.9761 22.1289 24.9761C22.9712 24.9761 23.7124 24.4819 24.0718 23.7744C25.1499 23.5273 25.9473 22.9995 26.4189 22.1797C27.4971 20.3267 26.4414 17.7661 23.6338 15.0371C26.4414 12.3081 27.4971 9.73633 26.4189 7.8833C25.3521 6.03027 22.623 5.65967 18.8608 6.71533C18.7822 6.38965 18.6924 6.0752 18.6025 5.77197C19.2202 5.39014 19.6357 4.70508 19.6357 3.94141C19.6357 2.76221 18.6362 1.77393 17.4683 1.77393C17.1875 1.77393 16.9067 1.83008 16.6597 1.93115C15.896 1.06641 15.02 0.617188 14.043 0.617188C11.8755 0.617188 10.1685 2.85205 9.21387 6.71533C5.45166 5.65967 2.72266 6.03027 1.65576 7.8833C0.588867 9.73633 1.6333 12.3081 4.44092 15.0371C4.12646 15.3516 3.82324 15.6548 3.55371 15.958C3.28418 15.8345 2.99219 15.7671 2.67773 15.7671C1.4873 15.7671 0.510254 16.7441 0.510254 17.9346C0.510254 18.6309 0.847168 19.2598 1.36377 19.6528C1.13916 20.585 1.229 21.4385 1.65576 22.1797ZM14.043 2.23438C14.582 2.23438 15.0762 2.49268 15.5254 2.97559C15.3794 3.26758 15.3008 3.59326 15.3008 3.94141C15.3008 4.96338 16.0308 5.83936 17.0078 6.05273C17.1089 6.42334 17.1987 6.80518 17.2886 7.2207C16.2666 7.59131 15.1772 8.05176 14.043 8.60205C12.8975 8.05176 11.8081 7.59131 10.7861 7.2207C11.46 4.04248 12.6055 2.23438 14.043 2.23438ZM3.04834 8.69189C3.75586 7.46777 5.85596 7.3667 8.87695 8.32129C8.68604 9.39941 8.55127 10.5674 8.46143 11.8252C7.42822 12.5327 6.49609 13.229 5.66504 13.9253C3.31787 11.7915 2.34082 9.91602 3.04834 8.69189ZM25.0264 8.69189C25.7339 9.91602 24.7681 11.7915 22.4097 13.9253C21.5898 13.229 20.6577 12.5327 19.6133 11.8252C19.5347 10.5674 19.3887 9.39941 19.1978 8.32129C22.2188 7.3667 24.3188 7.46777 25.0264 8.69189ZM11.2241 10.1069C10.8984 10.2866 10.5952 10.4663 10.292 10.6572C10.3481 10.0396 10.4155 9.45557 10.4941 8.89404C11.0107 9.10742 11.561 9.33203 12.1226 9.59033C11.8193 9.75879 11.5273 9.92725 11.2241 10.1069ZM16.8618 10.1069C16.5586 9.92725 16.2554 9.75879 15.9521 9.59033C16.5137 9.33203 17.064 9.10742 17.5918 8.89404C17.6704 9.45557 17.7378 10.0396 17.7939 10.6572C17.4907 10.4663 17.1763 10.2866 16.8618 10.1069ZM12.0664 18.4175C11.3926 18.0356 10.7637 17.6538 10.1685 17.272C10.1348 16.5083 10.1123 15.7222 10.1123 14.8911C10.1123 14.1611 10.1235 13.4648 10.1572 12.791C10.7637 12.3979 11.415 12.0049 12.0889 11.6118C12.7515 11.23 13.4028 10.8706 14.043 10.5337C14.6719 10.8706 15.3232 11.23 15.9858 11.6118C16.6709 12.0049 17.311 12.3979 17.9287 12.791C17.9512 13.4648 17.9624 14.1611 17.9624 14.8911C17.9624 15.7222 17.9512 16.5083 17.9175 17.272C17.311 17.6538 16.6821 18.0356 16.0195 18.4175C15.3345 18.8105 14.6831 19.1699 14.043 19.5068C13.4028 19.1699 12.7402 18.8105 12.0664 18.4175ZM8.36035 14.8911C8.36035 15.2954 8.36035 15.6885 8.37158 16.0815C7.87744 15.7222 7.40576 15.374 6.96777 15.0259C7.40576 14.689 7.87744 14.3408 8.37158 13.9814C8.36035 14.2847 8.36035 14.5879 8.36035 14.8911ZM19.7144 14.8911C19.7144 14.5879 19.7144 14.2847 19.7144 13.9814C20.2085 14.3408 20.6689 14.689 21.1069 15.0259C20.6689 15.374 20.1973 15.7222 19.7031 16.0815C19.7144 15.6885 19.7144 15.2954 19.7144 14.8911ZM3.04834 21.3711C2.83496 21.0005 2.77881 20.5737 2.85742 20.0908C3.96924 20.001 4.84521 19.0576 4.84521 17.9346C4.84521 17.6426 4.77783 17.3618 4.67676 17.1147C4.96875 16.7891 5.29443 16.4746 5.66504 16.1377C6.49609 16.8452 7.43945 17.5527 8.48389 18.2603C8.57373 19.4956 8.71973 20.6523 8.92188 21.708C5.87842 22.6851 3.76709 22.5952 3.04834 21.3711ZM25.0264 21.3711C24.8354 21.6968 24.5547 21.9326 24.1729 22.1011C23.8696 21.2588 23.061 20.6411 22.1289 20.6411C21.2305 20.6411 20.4556 21.2026 20.1299 21.9888C19.8154 21.9102 19.4897 21.8203 19.1641 21.708C19.355 20.6523 19.501 19.4956 19.5908 18.2603C20.6465 17.5527 21.5898 16.8452 22.4209 16.1377C24.7681 18.2827 25.7339 20.147 25.0264 21.3711ZM11.1792 19.9448C11.4937 20.1133 11.7969 20.293 12.1001 20.4502C11.5498 20.6973 11.0332 20.9219 10.5278 21.124C10.4492 20.5962 10.3706 20.0234 10.3145 19.4282C10.5952 19.5967 10.8872 19.7651 11.1792 19.9448ZM16.8955 19.9448C17.1875 19.7651 17.4795 19.5967 17.7603 19.4282C17.7041 20.0234 17.6367 20.5962 17.5581 21.124C17.0527 20.9219 16.5249 20.6973 15.9858 20.4502C16.2891 20.293 16.5923 20.1133 16.8955 19.9448ZM14.043 27.5928C12.6392 27.5928 11.5161 25.8633 10.8423 22.8198C11.853 22.4492 12.9199 22 14.043 21.4609C15.1548 22 16.2329 22.4492 17.2437 22.8198C16.5586 25.8633 15.4355 27.5928 14.043 27.5928Z" fill="white"/>
</svg>
