<svg width="41" height="41" viewBox="0 0 41 41" fill="none" xmlns="http://www.w3.org/2000/svg">
<path d="M20.5 40.8203C31.3789 40.8203 40.4219 31.7969 40.4219 20.8984C40.4219 10.0195 31.3594 0.976562 20.4805 0.976562C9.58203 0.976562 0.578125 10.0195 0.578125 20.8984C0.578125 31.7969 9.60156 40.8203 20.5 40.8203ZM20.5 37.5C11.2812 37.5 3.91797 30.1172 3.91797 20.8984C3.91797 11.6992 11.2617 4.29688 20.4805 4.29688C29.6797 4.29688 37.082 11.6992 37.1016 20.8984C37.1211 30.1172 29.6992 37.5 20.5 37.5ZM20.4805 32.0703C21.0078 32.0703 21.3984 31.6797 21.3984 31.1328V29.7656C24.4258 29.4727 26.7891 27.7148 26.7891 24.7656C26.7891 22.1094 25.0508 20.5078 21.6719 19.9023L21.3984 19.8438V14.4141C22.8047 14.6484 23.7812 15.4883 24.1523 16.8164C24.3672 17.4023 24.7383 17.7734 25.3633 17.7734C26.0273 17.7734 26.4961 17.2852 26.4961 16.6211C26.4961 16.4062 26.457 16.2305 26.418 16.0156C25.8906 13.8867 23.8984 12.4414 21.3984 12.168V10.8203C21.3984 10.2734 21.0078 9.88281 20.4805 9.88281C19.9336 9.88281 19.543 10.2539 19.543 10.8203V12.168C16.5938 12.5 14.4844 14.3359 14.4844 16.9922C14.4844 19.4727 16.1641 20.957 19.4258 21.7188L19.543 21.7578V27.5391C17.8047 27.2852 16.7695 26.3281 16.457 25.0195C16.2227 24.3555 15.832 24.043 15.2461 24.043C14.582 24.043 14.1133 24.5117 14.1133 25.1953C14.1133 25.4102 14.1523 25.5859 14.1914 25.8008C14.7578 28.0469 16.9453 29.4727 19.543 29.7461V31.1328C19.543 31.6992 19.9531 32.0703 20.4805 32.0703ZM19.543 19.375L19.4062 19.3359C17.668 18.8086 16.8867 18.0469 16.8867 16.875C16.8867 15.6836 17.9023 14.6875 19.543 14.4141V19.375ZM21.3984 22.2461L21.8281 22.3438C23.7031 22.8711 24.3672 23.6719 24.3672 24.9023C24.3672 26.2891 23.3906 27.3242 21.3984 27.5391V22.2461Z" fill="#007AFF"/>
</svg>
