<svg width="40" height="44" viewBox="0 0 40 44" fill="none" xmlns="http://www.w3.org/2000/svg">
<path d="M2.98828 34.3003L18.3203 43.0112C19.4531 43.6558 20.5078 43.6753 21.6797 43.0112L37.0117 34.3003C38.8281 33.2651 39.8242 32.2105 39.8242 29.3784V13.9097C39.8242 11.7417 38.9648 10.5112 37.3633 9.59328L23.5547 1.74171C21.1523 0.354993 18.8086 0.374525 16.4453 1.74171L2.63672 9.59328C1.03516 10.5112 0.175781 11.7417 0.175781 13.9097V29.3784C0.175781 32.2105 1.17188 33.2651 2.98828 34.3003ZM29.1797 15.1792L14.2383 6.74171L17.832 4.69093C19.3164 3.85109 20.6445 3.83156 22.168 4.69093L34.8828 11.9566L29.1797 15.1792ZM20 20.3745L5.11719 11.9566L10.957 8.61671L25.8398 17.0737L20 20.3745ZM4.82422 31.5659C3.71094 30.9409 3.33984 30.3355 3.33984 29.2808V14.7105L18.3594 23.2847V39.2612L4.82422 31.5659ZM35.1758 31.5659L21.6406 39.2612V23.2847L36.6602 14.7105V29.2808C36.6602 30.3355 36.2891 30.9409 35.1758 31.5659Z" fill="#EB5757"/>
</svg>
