<svg width="55" height="16" viewBox="0 0 55 16" fill="none" xmlns="http://www.w3.org/2000/svg">
<path d="M7.2288 15.1119C11.1834 15.1119 14.4576 11.8306 14.4576 7.88309C14.4576 3.92852 11.1763 0.654297 7.22171 0.654297C3.27422 0.654297 0 3.92852 0 7.88309C0 11.8306 3.28131 15.1119 7.2288 15.1119ZM7.2288 13.9071C3.88371 13.9071 1.21189 11.2282 1.21189 7.88309C1.21189 4.538 3.87662 1.8591 7.22171 1.8591C10.5668 1.8591 13.2457 4.538 13.2528 7.88309C13.2599 11.2282 10.5739 13.9071 7.2288 13.9071ZM9.93605 8.27288C10.2337 8.0957 10.2266 7.68465 9.93605 7.51457L5.90352 5.12623C5.59877 4.94196 5.19481 5.08371 5.19481 5.42388V10.3565C5.19481 10.6967 5.57042 10.8526 5.90352 10.6541L9.93605 8.27288Z" fill="white"/>
<path d="M20.3346 12.9999H26.9539V11.8518H22.1063V11.7384L24.4309 9.33594C26.2806 7.42952 26.7838 6.57907 26.7838 5.40971V5.39554C26.7838 3.74425 25.416 2.53237 23.63 2.53237C21.674 2.53237 20.2708 3.83638 20.2637 5.65067L20.2779 5.65776L21.4968 5.66484L21.5039 5.65067C21.5039 4.44587 22.3189 3.64503 23.545 3.64503C24.7498 3.64503 25.4798 4.45296 25.4798 5.53019V5.54436C25.4798 6.43733 25.0971 6.96886 23.793 8.37919L20.3346 12.1212V12.9999Z" fill="white"/>
<path d="M32.5686 12.9999H33.8018V8.26579C33.8018 7.18856 34.5601 6.31685 35.5593 6.31685C36.5232 6.31685 37.1468 6.90508 37.1468 7.81222V12.9999H38.38V8.08862C38.38 7.11769 39.0816 6.31685 40.1447 6.31685C41.2219 6.31685 41.7393 6.87673 41.7393 8.00357V12.9999H42.9724V7.72009C42.9724 6.11842 42.1007 5.22545 40.5415 5.22545C39.4856 5.22545 38.6139 5.75698 38.2028 6.5649H38.0894C37.7351 5.77115 37.0122 5.22545 35.9775 5.22545C34.9782 5.22545 34.2553 5.70028 33.9151 6.52238H33.8018V5.3601H32.5686V12.9999Z" fill="white"/>
<path d="M45.5353 3.88599C46.003 3.88599 46.3857 3.50329 46.3857 3.03555C46.3857 2.5678 46.003 2.1851 45.5353 2.1851C45.0675 2.1851 44.6848 2.5678 44.6848 3.03555C44.6848 3.50329 45.0675 3.88599 45.5353 3.88599ZM44.9116 12.9999H46.1448V5.3601H44.9116V12.9999Z" fill="white"/>
<path d="M48.1548 12.9999H49.388V8.4784C49.388 7.13895 50.1605 6.31685 51.3794 6.31685C52.5984 6.31685 53.1654 6.97595 53.1654 8.35084V12.9999H54.3985V8.05318C54.3985 6.2389 53.4418 5.22545 51.7267 5.22545C50.5999 5.22545 49.8841 5.70028 49.5014 6.5082H49.388V5.3601H48.1548V12.9999Z" fill="white"/>
</svg>
