<svg width="55" height="16" viewBox="0 0 55 16" fill="none" xmlns="http://www.w3.org/2000/svg">
<path d="M7.49735 15.1119C11.4519 15.1119 14.7261 11.8306 14.7261 7.88309C14.7261 3.92852 11.4448 0.654297 7.49026 0.654297C3.54277 0.654297 0.268555 3.92852 0.268555 7.88309C0.268555 11.8306 3.54986 15.1119 7.49735 15.1119ZM7.49735 13.9071C4.15226 13.9071 1.48044 11.2282 1.48044 7.88309C1.48044 4.538 4.14517 1.8591 7.49026 1.8591C10.8354 1.8591 13.5143 4.538 13.5213 7.88309C13.5284 11.2282 10.8424 13.9071 7.49735 13.9071ZM10.2046 8.27288C10.5023 8.0957 10.4952 7.68465 10.2046 7.51457L6.17207 5.12623C5.86733 4.94196 5.46337 5.08371 5.46337 5.42388V10.3565C5.46337 10.6967 5.83898 10.8526 6.17207 10.6541L10.2046 8.27288Z" fill="#67676B"/>
<path d="M20.6031 12.9999H27.2224V11.8518H22.3749V11.7384L24.6994 9.33594C26.5491 7.42952 27.0523 6.57907 27.0523 5.40971V5.39554C27.0523 3.74425 25.6845 2.53237 23.8986 2.53237C21.9426 2.53237 20.5393 3.83638 20.5322 5.65067L20.5464 5.65776L21.7654 5.66484L21.7725 5.65067C21.7725 4.44587 22.5875 3.64503 23.8135 3.64503C25.0183 3.64503 25.7483 4.45296 25.7483 5.53019V5.54436C25.7483 6.43733 25.3656 6.96886 24.0616 8.37919L20.6031 12.1212V12.9999Z" fill="#67676B"/>
<path d="M32.8372 12.9999H34.0703V8.26579C34.0703 7.18856 34.8286 6.31685 35.8279 6.31685C36.7917 6.31685 37.4154 6.90508 37.4154 7.81222V12.9999H38.6485V8.08862C38.6485 7.11769 39.3502 6.31685 40.4132 6.31685C41.4905 6.31685 42.0078 6.87673 42.0078 8.00357V12.9999H43.241V7.72009C43.241 6.11842 42.3692 5.22545 40.8101 5.22545C39.7541 5.22545 38.8824 5.75698 38.4714 6.5649H38.358C38.0036 5.77115 37.2807 5.22545 36.246 5.22545C35.2468 5.22545 34.5239 5.70028 34.1837 6.52238H34.0703V5.3601H32.8372V12.9999Z" fill="#67676B"/>
<path d="M45.8038 3.88599C46.2716 3.88599 46.6543 3.50329 46.6543 3.03555C46.6543 2.5678 46.2716 2.1851 45.8038 2.1851C45.3361 2.1851 44.9534 2.5678 44.9534 3.03555C44.9534 3.50329 45.3361 3.88599 45.8038 3.88599ZM45.1802 12.9999H46.4133V5.3601H45.1802V12.9999Z" fill="#67676B"/>
<path d="M48.4234 12.9999H49.6565V8.4784C49.6565 7.13895 50.429 6.31685 51.648 6.31685C52.867 6.31685 53.4339 6.97595 53.4339 8.35084V12.9999H54.6671V8.05318C54.6671 6.2389 53.7103 5.22545 51.9953 5.22545C50.8684 5.22545 50.1526 5.70028 49.7699 6.5082H49.6565V5.3601H48.4234V12.9999Z" fill="#67676B"/>
</svg>
