<svg width="12" height="12" viewBox="0 0 12 12" fill="none" xmlns="http://www.w3.org/2000/svg">
<path opacity="0.72" d="M5.87207 11.8604C6.45996 11.8604 6.95215 11.3477 6.95215 10.8008V7.00684H10.6777C11.2451 7.00684 11.7373 6.51465 11.7373 5.92676C11.7373 5.33887 11.2451 4.84668 10.6777 4.84668H6.95215V1.05273C6.95215 0.485352 6.45996 0 5.87207 0C5.28418 0 4.79199 0.485352 4.79199 1.05273V4.84668H1.05957C0.519531 4.84668 0 5.33887 0 5.92676C0 6.51465 0.519531 7.00684 1.05957 7.00684H4.79199V10.8008C4.79199 11.3477 5.28418 11.8604 5.87207 11.8604Z" fill="white"/>
</svg>
