<svg width="12" height="13" viewBox="0 0 12 13" fill="none" xmlns="http://www.w3.org/2000/svg">
<path opacity="0.72" d="M6.00098 12.0049C6.58887 12.0049 7.08105 11.4922 7.08105 10.9453V7.15137H10.8066C11.374 7.15137 11.8662 6.65918 11.8662 6.07129C11.8662 5.4834 11.374 4.99121 10.8066 4.99121H7.08105V1.19727C7.08105 0.629883 6.58887 0.144531 6.00098 0.144531C5.41309 0.144531 4.9209 0.629883 4.9209 1.19727V4.99121H1.18848C0.648438 4.99121 0.128906 5.4834 0.128906 6.07129C0.128906 6.65918 0.648438 7.15137 1.18848 7.15137H4.9209V10.9453C4.9209 11.4922 5.41309 12.0049 6.00098 12.0049Z" fill="black"/>
</svg>
