<svg width="55" height="45" viewBox="0 0 55 45" fill="none" xmlns="http://www.w3.org/2000/svg">
<path d="M-6.4669e-07 22.4861C-7.46564e-07 23.6285 0.505617 24.8266 1.29213 25.5789L19.5225 43.6625C20.4213 44.5542 21.4888 45 22.5 45C25 45 26.6573 43.3003 26.6573 41.0433C26.6573 39.7616 26.1236 38.7864 25.3371 38.0341L18.9326 31.6811L13.1461 26.3591L19.1854 26.6935L50.5899 26.6935C53.2303 26.6935 55 24.9938 55 22.4861C55 19.9783 53.2303 18.3065 50.5899 18.3065L19.1854 18.3065L13.118 18.613L18.9326 13.3189L25.3371 6.9938C26.0955 6.21362 26.6573 5.23839 26.6573 3.98452C26.6573 1.72755 25 -3.62153e-06 22.5 -3.84008e-06C21.4888 -3.92849e-06 20.4494 0.445816 19.5506 1.30959L1.29213 19.421C0.505618 20.1734 -5.49253e-07 21.3715 -6.4669e-07 22.4861Z" fill="black"/>
</svg>
