<svg width="55" height="45" viewBox="0 0 55 45" fill="none" xmlns="http://www.w3.org/2000/svg">
<path d="M55 22.5139C55 21.3715 54.4944 20.1734 53.7079 19.4211L35.4775 1.33746C34.5787 0.44582 33.5112 0 32.5 0C30 0 28.3427 1.69969 28.3427 3.95666C28.3427 5.23839 28.8764 6.21362 29.6629 6.96594L36.0674 13.3189L41.8539 18.6409L35.8146 18.3065L4.41011 18.3065C1.76966 18.3065 0 20.0062 0 22.5139C0 25.0217 1.76966 26.6935 4.41011 26.6935L35.8146 26.6935L41.882 26.387L36.0674 31.6811L29.6629 38.0062C28.9045 38.7864 28.3427 39.7616 28.3427 41.0155C28.3427 43.2724 30 45 32.5 45C33.5112 45 34.5506 44.5542 35.4494 43.6904L53.7079 25.5789C54.4944 24.8266 55 23.6285 55 22.5139Z" fill="white"/>
</svg>
