<svg width="59" height="16" viewBox="0 0 59 16" fill="none" xmlns="http://www.w3.org/2000/svg">
<path d="M0.807251 13.3405C0.807251 14.7508 1.50887 15.4808 2.94754 15.4808H14.9884C16.4767 15.4808 17.2138 14.7508 17.2138 13.2909V2.48312C17.2138 1.02319 16.4767 0.286133 14.9884 0.286133H6.15798C4.67678 0.286133 3.93264 1.02319 3.93264 2.48312V5.86364H2.23884C1.33878 5.86364 0.807251 6.35265 0.807251 7.19601V13.3405ZM4.8327 14.3398C4.98861 14.035 5.07366 13.6807 5.07366 13.2696V2.5469C5.07366 1.80985 5.47053 1.42715 6.17924 1.42715H14.9743C15.6759 1.42715 16.0728 1.80985 16.0728 2.5469V13.2271C16.0728 13.9641 15.6759 14.3398 14.9743 14.3398H4.8327ZM6.91629 4.51002H14.2443C14.4924 4.51002 14.6837 4.31158 14.6837 4.06353C14.6837 3.82257 14.4924 3.63831 14.2443 3.63831H6.91629C6.66116 3.63831 6.46981 3.82257 6.46981 4.06353C6.46981 4.31158 6.66116 4.51002 6.91629 4.51002ZM6.91629 7.00466H14.2443C14.4924 7.00466 14.6837 6.81331 14.6837 6.57235C14.6837 6.3243 14.4924 6.13295 14.2443 6.13295H6.91629C6.66116 6.13295 6.46981 6.3243 6.46981 6.57235C6.46981 6.81331 6.66116 7.00466 6.91629 7.00466ZM1.94827 13.3405V7.41571C1.94827 7.15349 2.10418 7.00466 2.3664 7.00466H3.93264V13.3405C3.93264 13.9287 3.50033 14.3398 2.94754 14.3398C2.38766 14.3398 1.94827 13.9074 1.94827 13.3405ZM7.33443 12.1853H9.16997C9.70859 12.1853 10.0346 11.8593 10.0346 11.3136V9.46387C10.0346 8.92525 9.70859 8.59925 9.16997 8.59925H7.33443C6.78872 8.59925 6.46272 8.92525 6.46272 9.46387V11.3136C6.46272 11.8593 6.78872 12.1853 7.33443 12.1853ZM11.3103 9.50639H14.2443C14.4924 9.50639 14.6766 9.32213 14.6766 9.08117C14.6766 8.82603 14.4924 8.63468 14.2443 8.63468H11.3103C11.0551 8.63468 10.8709 8.82603 10.8709 9.08117C10.8709 9.32213 11.0551 9.50639 11.3103 9.50639ZM11.3103 12.0577H14.2443C14.4924 12.0577 14.6766 11.8735 14.6766 11.6325C14.6766 11.3845 14.4924 11.186 14.2443 11.186H11.3103C11.0551 11.186 10.8709 11.3845 10.8709 11.6325C10.8709 11.8735 11.0551 12.0577 11.3103 12.0577Z" fill="#67676B"/>
<path d="M28.3068 13.0003H29.5541V10.8813H31.007V9.74026H29.5541V2.77369H27.7044C26.2728 4.90689 24.7066 7.40153 23.3246 9.719V10.8813H28.3068V13.0003ZM24.6286 9.74735V9.6623C25.7413 7.78424 27.0808 5.67229 28.2289 3.95723H28.3139V9.74735H24.6286Z" fill="#67676B"/>
<path d="M36.4516 13.0003H37.6848V8.26616C37.6848 7.18892 38.4431 6.31721 39.4424 6.31721C40.4062 6.31721 41.0299 6.90544 41.0299 7.81258V13.0003H42.263V8.08898C42.263 7.11805 42.9646 6.31721 44.0277 6.31721C45.1049 6.31721 45.6223 6.87709 45.6223 8.00393V13.0003H46.8554V7.72045C46.8554 6.11878 45.9837 5.22581 44.4246 5.22581C43.3686 5.22581 42.4969 5.75734 42.0858 6.56526H41.9725C41.6181 5.77151 40.8952 5.22581 39.8605 5.22581C38.8612 5.22581 38.1384 5.70064 37.7982 6.52274H37.6848V5.36046H36.4516V13.0003Z" fill="#67676B"/>
<path d="M49.4183 3.88636C49.886 3.88636 50.2687 3.50366 50.2687 3.03591C50.2687 2.56816 49.886 2.18546 49.4183 2.18546C48.9506 2.18546 48.5679 2.56816 48.5679 3.03591C48.5679 3.50366 48.9506 3.88636 49.4183 3.88636ZM48.7946 13.0003H50.0278V5.36046H48.7946V13.0003Z" fill="#67676B"/>
<path d="M52.0379 13.0003H53.271V8.47877C53.271 7.13931 54.0435 6.31721 55.2625 6.31721C56.4814 6.31721 57.0484 6.97631 57.0484 8.3512V13.0003H58.2816V8.05354C58.2816 6.23926 57.3248 5.22581 55.6097 5.22581C54.4829 5.22581 53.7671 5.70064 53.3844 6.50857H53.271V5.36046H52.0379V13.0003Z" fill="#67676B"/>
</svg>
