<svg width="32" height="32" viewBox="0 0 32 32" fill="none" xmlns="http://www.w3.org/2000/svg">
<rect width="32" height="32" rx="16" fill="#0479FF"/>
<path d="M11.0723 23.7891C11.9268 23.7891 13.834 22.9688 15.208 22.0049C15.3652 21.9023 15.4883 21.8682 15.6318 21.8682C15.7139 21.875 15.7822 21.875 15.8369 21.875C20.7725 21.8682 24.751 19.373 24.751 15.1895C24.751 11.4844 21.0801 8.50391 16.5 8.50391C11.9199 8.50391 8.24902 11.4844 8.24902 15.1895C8.24902 17.4043 9.52734 19.4619 11.8584 20.7402C12.0361 20.8291 12.0635 20.9385 11.9883 21.0957C11.5576 21.8135 10.9219 22.5381 10.6416 22.9004C10.2656 23.3652 10.4844 23.7891 11.0723 23.7891Z" fill="white"/>
</svg>
