<svg width="18" height="18" viewBox="0 0 18 18" fill="none" xmlns="http://www.w3.org/2000/svg">
<path d="M9.2288 16.4576C13.1834 16.4576 16.4576 13.1834 16.4576 9.2288C16.4576 5.28131 13.1905 2 9.23588 2C8.86027 2 8.676 2.22679 8.676 2.59531V5.34509C8.676 5.64983 8.88862 5.89788 9.19336 5.89788C9.50519 5.89788 9.7178 5.64983 9.7178 5.34509V3.22606C12.8361 3.47411 15.2457 6.05379 15.2457 9.2288C15.2457 12.5739 12.5739 15.2528 9.2288 15.2528C5.88371 15.2528 3.19771 12.5739 3.2048 9.2288C3.21189 7.74051 3.74342 6.38689 4.63638 5.34509C4.849 5.06869 4.86317 4.7356 4.6293 4.48756C4.39542 4.23242 4.00564 4.25368 3.74342 4.5726C2.66618 5.8341 2 7.46412 2 9.2288C2 13.1834 5.28131 16.4576 9.2288 16.4576ZM10.3627 10.3202C10.9155 9.73906 10.8021 8.94531 10.1289 8.47757L6.3798 5.86244C6.03253 5.6144 5.66401 5.98292 5.91205 6.33728L8.52718 10.0863C8.99492 10.7596 9.78158 10.8801 10.3627 10.3202Z" fill="white"/>
</svg>
